<?xml version="1.0" encoding="utf-8"?>
<!-- Generator: Adobe Illustrator 22.1.0, SVG Export Plug-In . SVG Version: 6.00 Build 0)  -->
<svg version="1.1" id="Layer_1" xmlns="http://www.w3.org/2000/svg" xmlns:xlink="http://www.w3.org/1999/xlink" x="0px" y="0px"
	 viewBox="0 0 491.5 491.5" style="enable-background:new 0 0 491.5 491.5;" xml:space="preserve">
<style type="text/css">
	.st0{fill:#FF2E2E;}
	.st1{opacity:0.1;enable-background:new    ;}
	.st2{fill:#3EA69B;}
	.st3{fill:#44C4A1;}
	.st4{fill:#FCD462;}
	.st5{fill:#27A2DB;}
	.st6{fill:#1C75A1;}
</style>
<circle class="st0" cx="245.8" cy="245.8" r="245.8"/>
<path class="st1" d="M251.8,111.4c4.3,29.2,5.5,57,4.9,85.2l-13.3,2.8c-7.6,1.7-14.5,5.7-19.8,11.5l-29.1,31.6
	c-3.3,3.5-7.1,6.3-11.3,8.4l-12.9-12.9h-61.1v148.4l102.6,102.6c11.1,1.5,22.5,2.4,34,2.4c130.2,0,236.7-101.3,245.2-229.3
	L352.4,123.7C312.8,102.7,295.3,100.5,251.8,111.4z"/>
<path class="st2" d="M352.4,123.7c-18.9,46.6-28.4,91.6-35.9,141.6c-25.9-1.9-37.8-3.4-63.4-7.8c4.6-50.4,6-96.4-1.3-146.2
	C295.2,100.5,312.8,102.7,352.4,123.7z"/>
<path class="st3" d="M304.3,258.5c-15.2-1.6-22.5-2.5-37.6-4.6c0.6-5.6-2.7-10.6-7.4-11.3c3.1-39.7,4-75.9,1.5-115.6
	c6.9-2,12.3-7.3,12-12.8c24-4.7,36.4-3.2,58.7,7.2c-1.6,5.2,2.4,11.7,8.6,15.3c-11.9,37.9-19.5,73.2-25.9,112.6
	C309.4,248.8,305,252.9,304.3,258.5z"/>
<g>
	<path class="st2" d="M296.6,163.5c14.5,1.8,23.8,14.9,21.6,26c-2.2,11.1-13.9,17.9-26.7,16.3c-12.7-1.6-22.5-11-22-22.3
		C269.9,172.3,282.1,161.8,296.6,163.5z"/>
	<path class="st2" d="M301.8,119.9c3.2,0.4,5.5,3,5.1,5.7c-0.4,2.6-3.2,4.3-6.2,3.9c-3.1-0.4-5.3-2.7-5.1-5.3
		C295.8,121.6,298.6,119.6,301.8,119.9z"/>
	<ellipse transform="matrix(0.1194 -0.9928 0.9928 0.1194 9.6162 500.2841)" class="st2" cx="286.8" cy="244.7" rx="4.8" ry="3.9"/>
</g>
<path class="st3" d="M313.3,189.5c-1.4-0.3-2-0.5-3.4-0.8c-1.2,4.5-3.6,8.4-7,11.6c-1.4-1.8-2-2.7-3.4-4.4c2.6-2.5,4.4-5.3,5.3-8.2
	c-3.6-0.7-5.5-1-9.1-1.5c-1.3,3.8-2.8,6.5-4.4,8.2c-1.6,1.7-3.7,2.4-6.3,2.1c-2.6-0.2-4.7-1.4-6.3-3.6c-1.5-2.2-2.3-4.9-2.2-8.2
	c-1,0-1.4,0-2.4,0c0.1-1.3,0.1-2,0.2-3.3c1,0,1.5,0,2.5,0c0.5-3.8,1.9-7.3,4.4-10.7c1.8,1.4,2.6,2.1,4.3,3.5
	c-1.7,2.2-2.9,4.6-3.4,7.3c3.6,0.1,5.4,0.3,9,0.6c0-0.1,0-0.1,0-0.2c1.3-3.9,2.8-6.7,4.6-8.4c1.7-1.7,4.1-2.3,7-1.8
	c2.9,0.5,5,2.1,6.5,4.6c1.4,2.5,1.9,5.5,1.4,9c1.4,0.3,2,0.5,3.4,0.8C313.7,187.5,313.6,188.2,313.3,189.5z M282.6,188.6
	c0.6,0.9,1.5,1.4,2.5,1.5c1,0.1,1.9-0.2,2.6-0.8c0.7-0.6,1.4-1.9,2.2-3.8c-3.3-0.3-4.9-0.4-8.2-0.6
	C281.7,186.4,282,187.6,282.6,188.6z M304.8,180.2c-0.6-1.1-1.4-1.8-2.6-2c-1.1-0.2-2.1,0-2.8,0.7c-0.8,0.7-1.6,2-2.4,4
	c3.4,0.5,5.1,0.8,8.5,1.4C305.6,182.7,305.4,181.3,304.8,180.2z"/>
<path class="st2" d="M382.4,164.1c-31.2,37.6-53.2,77.2-74.7,122.2c-23.8-11.2-34.5-16.8-57.3-30.3c18.9-46.5,33.5-89.8,41.1-140
	C335.4,121.3,351.3,129.7,382.4,164.1z"/>
<path class="st3" d="M298.2,275.4c-13.8-7-20.4-10.5-34-18c2.2-5.2,0.6-11.1-3.6-13.4c14.4-36.8,25.7-71,34.8-109.8
	c7,0.6,13.7-2.5,14.9-7.9c23.9,4.2,35.1,10.1,53,28c-3,4.4-1.1,12.1,3.7,17.7c-22.1,31.9-39.5,62.8-56.9,98.1
	C305.8,268,300.5,270.3,298.2,275.4z"/>
<g>
	<path class="st2" d="M318.4,182c13.1,6.9,18,22.8,12.7,32.6s-18.3,12-29.8,6c-11.5-6.1-18-18.6-14.2-29.2
		C290.9,180.7,305.3,175,318.4,182z"/>
	<path class="st2" d="M336,142.3c2.9,1.5,4.3,4.9,3.1,7.2c-1.1,2.4-4.2,3-7,1.5c-2.8-1.5-4.2-4.5-3.3-6.9
		C329.8,141.6,333.1,140.7,336,142.3z"/>
	<path class="st2" d="M287.7,251.6c1.9,1,2.7,3.8,1.6,6.2c-1.1,2.4-3.5,3.5-5.4,2.5c-1.9-1-2.6-3.8-1.6-6.2
		C283.3,251.7,285.8,250.5,287.7,251.6z"/>
</g>
<path class="st3" d="M326.6,212.7c-1.2-0.8-1.8-1.2-3-2c-2.5,3.9-5.8,6.7-9.9,8.5c-0.8-2.2-1.1-3.3-1.9-5.5c3.2-1.5,5.7-3.4,7.4-5.9
	c-3.2-2-4.8-2.9-8.1-4.7c-2.4,3.2-4.5,5.2-6.5,6.3s-4.1,0.9-6.5-0.2c-2.4-1.2-4-3-4.8-5.7c-0.8-2.6-0.7-5.5,0.3-8.6
	c-0.9-0.4-1.3-0.5-2.2-0.9c0.5-1.2,0.7-1.8,1.1-3c0.9,0.4,1.4,0.5,2.3,0.9c1.6-3.4,3.9-6.3,7.2-8.6c1.3,1.9,1.9,2.9,3,4.9
	c-2.3,1.5-4,3.4-5.3,5.7c3.4,1.4,5,2.2,8.3,3.9c0-0.1,0-0.1,0.1-0.1c2.4-3.3,4.6-5.4,6.7-6.4c2.1-1,4.5-0.7,7.1,0.8
	c2.6,1.5,4.1,3.8,4.7,6.7c0.6,2.9,0.2,5.9-1.3,9.1c1.2,0.8,1.8,1.2,2.9,2C327.5,211,327.2,211.6,326.6,212.7z M298.1,200.8
	c0.3,1.1,1,1.9,1.9,2.3c1,0.5,1.8,0.5,2.7,0.1c0.8-0.4,1.9-1.3,3.1-2.8c-3-1.5-4.5-2.2-7.5-3.5C297.8,198.4,297.8,199.7,298.1,200.8
	z M321.3,200.8c-0.2-1.3-0.8-2.2-1.8-2.8c-1-0.6-2-0.7-2.9-0.4c-0.9,0.4-2,1.3-3.4,2.9c3.1,1.7,4.6,2.6,7.6,4.5
	C321.4,203.5,321.5,202.1,321.3,200.8z"/>
<path class="st4" d="M337.5,242.6L337.5,242.6c0-10.8-8.5-19.5-19-19.5h-1.3c-18.2-1.7-32.6-1.1-42.7,0H272v0.3
	c-9.2,1.1-14.2,2.6-14.2,2.6l-1-29.4l-13.4,2.8c-7.6,1.7-14.5,5.7-19.8,11.4l-29.1,31.6c-7.3,7.9-17.5,12.4-28.2,12.4h-3.7
	l-14.4,104.6l36.5,0.3c51.8,20.5,114.3,13.3,114.3,13.3h5.4c10.5,0,19-8.7,19-19.5l0,0c0-7.8-4.5-14.6-11.1-17.7h1.3
	c10.5,0,19-8.7,19-19.5l0,0c0-7.7-4.4-14.4-10.8-17.5c8.9-1.6,15.7-9.6,15.7-19.1l0,0c0-8.7-5.6-16.1-13.4-18.6
	C331.9,258.7,337.5,251.4,337.5,242.6z"/>
<rect x="109.2" y="238.2" class="st5" width="61.1" height="148.4"/>
<circle class="st6" cx="139.7" cy="363.2" r="10.7"/>
</svg>
