<?xml version="1.0" encoding="utf-8"?>
<!-- Generator: Adobe Illustrator 22.1.0, SVG Export Plug-In . SVG Version: 6.00 Build 0)  -->
<svg version="1.1" id="Layer_1" xmlns="http://www.w3.org/2000/svg" xmlns:xlink="http://www.w3.org/1999/xlink" x="0px" y="0px"
	 viewBox="0 0 497.1 158" style="enable-background:new 0 0 497.1 158;" xml:space="preserve">
<style type="text/css">
	.st0{fill:#FFD328;}
	.st1{fill:#006E96;}
	.st2{fill:#FFFFFF;}
</style>
<g>
	<g>
		<g>
			<path class="st0" d="M484.6,158c-157.3,0-314.7,0-472,0c-0.3-0.1-0.7-0.2-1-0.3c-5.4-0.6-9.6-4.2-11-9.5
				c-0.2-0.6-0.4-1.2-0.5-1.8c0-45,0-90,0-135c0.1-0.3,0.2-0.6,0.3-0.9c1.2-5.4,4.5-8.8,9.8-10.1c0.8-0.2,1.6-0.3,2.4-0.5
				c157.3,0,314.7,0,472,0c0.3,0.1,0.7,0.2,1,0.3c5.4,0.6,9.6,4.2,11,9.5c0.2,0.6,0.4,1.2,0.5,1.8c0,45,0,90,0,135
				c-0.1,0.3-0.2,0.6-0.3,0.9c-1.2,5.4-4.5,8.8-9.8,10.1C486.2,157.6,485.4,157.8,484.6,158z M301.7,82.1c-0.1,0-0.2,0-0.4,0
				c-0.1-0.5-0.3-0.9-0.4-1.4c-2.3-7.8-4.6-15.6-7-23.4c-0.9-2.8-2.9-4.5-5.9-4.6c-3.2-0.1-6.3,0-9.5,0c-1.4,0-2,0.7-2.1,2.1
				c0,0.7,0.1,1.4,0.3,2.1c0.4,1.4,0.8,2.7,1.3,4.1c4.3,13.3,8.5,26.5,12.8,39.8c1,3,3.2,4.6,6.3,4.6c2,0,3.9,0,5.9,0
				c3.5,0,5.6-1.5,6.7-4.8c2.8-8.7,5.5-17.5,8.3-26.2c0.1-0.4,0.3-0.8,0.6-1.6c0.3,0.8,0.5,1.3,0.6,1.8c2.7,8.7,5.5,17.4,8.2,26.1
				c1,3.2,3.2,4.8,6.6,4.8c1.9,0,3.8,0,5.7,0c3.4,0,5.5-1.5,6.6-4.8c4-12.2,7.9-24.5,11.8-36.7c0.9-2.7,1.8-5.3,2.4-8
				c0.5-2.1-0.4-3.1-2.6-3.1c-2.6,0-5.2,0-7.7,0c-4.1,0-6.1,1.5-7.3,5.5c-2,6.8-4,13.7-6.1,20.5c-0.3,1.2-0.7,2.3-1.1,3.5
				c-0.5-0.7-0.8-1.5-1-2.2c-2.2-7.6-4.5-15.3-6.7-22.9c-0.9-3-2.7-4.3-5.8-4.3c-2.4,0-4.8,0-7.2,0c-3.4,0-5.1,1.3-6.1,4.6
				c-1.4,4.6-2.7,9.3-4.1,14C303.9,74.8,302.8,78.5,301.7,82.1z M256.8,101.1c0.1,0.4,0.1,0.6,0.1,0.8c0.2,2.6,1,3.5,3.6,3.5
				c2.6,0,5.2,0,7.7,0c2.4,0,3.3-1,3.3-3.3c0-10,0-20,0-30.1c0-3.3-0.6-6.5-2.1-9.4c-2.8-5.5-7.5-8.4-13.3-9.8
				c-5.3-1.3-10.7-1.2-16.1-0.8c-3.9,0.3-7.7,1-11.3,2.6c-4.4,1.9-7,5.2-7.4,10.1c-0.2,2.5,1,3.8,3.4,3.8c2.1,0,4.2,0,6.3,0
				c2.2,0,4-0.8,5.5-2.5c0.6-0.7,1.4-1.4,2.3-1.8c2.2-1.2,4.6-1.6,7.1-1.5c6.2,0,8.7,2.4,9.4,8.5c0.1,1.3-0.2,1.6-1.5,1.6
				c-4.9-0.1-9.9,0-14.8,0c-3.8,0-7.5,0.6-11,2c-6.5,2.6-10.2,7.3-10.5,14.5c-0.2,6.4,3.3,11.8,9.6,14.7c3.5,1.6,7.1,2.2,10.9,2.4
				c5.8,0.3,11.3-0.8,16.4-3.9C255.3,102,255.9,101.6,256.8,101.1z M439.5,101.4c-0.7,2.7-1.6,5.1-3.4,7.2c-2,2.2-4.4,3-7.3,2.5
				c-2-0.3-4.1-0.6-6.1-0.6c-1.9-0.1-3,1.1-3,3c0,1.6,0,3.1,0,4.7c0,2.1,0.9,3.3,3,3.5c4.2,0.4,8.4,0.9,12.6,1
				c6.9,0.1,12.2-3.1,15.4-9.2c1.8-3.3,3.3-6.8,4.3-10.4c4.4-15.6,8.6-31.2,12.9-46.9c0.6-2.2-0.3-3.3-2.6-3.3c-3,0-6,0-9,0
				c-2.2,0-3.7,1.1-4.3,3.2c-0.3,1-0.6,2.1-0.9,3.1c-2.7,9.8-5.4,19.6-8.1,29.4c-0.3,1.1-0.8,1.3-1.8,1.1c-1.7-0.4-3-1.3-4.1-2.6
				c-2-2.5-3.1-5.4-4.1-8.4c-2.3-7.4-4.5-14.8-6.8-22.2c-0.7-2.3-2.3-3.5-4.7-3.6c-3,0-6.1,0-9.1,0c-2.1,0-3,1.2-2.4,3.2
				c2.5,8.3,5,16.6,7.5,24.9c1.5,4.7,3.4,9.3,6.5,13.2c2.8,3.6,6.3,6,10.9,6.7C436.5,101,437.9,101.2,439.5,101.4z M177.5,78.9
				C177.5,78.9,177.4,78.9,177.5,78.9c-0.1,7.6-0.1,15.2-0.1,22.8c0,2.7,0.9,3.6,3.6,3.6c2.9,0,5.9,0,8.8,0c2.8,0,3.7-0.9,3.7-3.7
				c0-9.2,0-18.4,0-27.7c0-1.2,0.4-1.6,1.6-1.6c5,0.1,10.1,0,15.1,0c2.1,0,3.2-1.1,3.3-3.2c0-1.6,0-3.2,0-4.8c0-2.6-0.9-3.5-3.6-3.5
				c-4.9,0-9.9,0-14.8,0c-1.3,0-1.7-0.4-1.6-1.6c0.1-1.3,0.1-2.7,0.3-4c0.6-4.4,2.3-6.8,6.1-7.6c3.9-0.9,7.9-1.2,11.9-0.5
				c1.5,0.3,3,0.4,4.5,0.4c2.1,0,3.2-1.1,3.3-3.2c0-1.5,0-2.9,0-4.4c0-2.1-0.9-3.2-3-3.6c-1.7-0.3-3.3-0.5-5-0.7
				c-6.6-0.5-13.2-0.6-19.7,0.9c-5.9,1.4-10.6,4.5-12.6,10.5c-1,2.9-1.6,6-1.7,9C177.3,63.7,177.5,71.3,177.5,78.9z M383.8,58.5
				c0-1.2,0-2,0-2.8c-0.1-2-1.1-3-3.1-3.1c-3.3,0-6.6,0-9.9,0c-2.1,0-3.2,1.1-3.2,3.2c0,15.4,0,30.8,0,46.2c0,2.1,1.1,3.2,3.2,3.2
				c3.1,0,6.1,0,9.2,0c2.9,0,3.8-0.9,3.8-3.7c0-8.8,0.1-17.6-0.1-26.5c-0.1-2.8,0.8-4.7,2.8-6.5c3.3-2.9,6.9-4.5,11.3-4.1
				c2.2,0.2,4.4,0.3,6.7,0.2c1.9,0,2.9-1,3-2.9c0.1-2.4,0.1-4.9,0-7.3c0-1.8-1.1-2.9-2.9-2.9c-6.1-0.1-11.9,1-17.1,4.4
				C386.4,56.8,385.2,57.5,383.8,58.5z"/>
			<path class="st1" d="M301.7,82.1c1.1-3.6,2.1-7.2,3.2-10.9c1.4-4.7,2.7-9.3,4.1-14c1-3.3,2.7-4.6,6.1-4.6c2.4,0,4.8,0,7.2,0
				c3.1,0,4.9,1.3,5.8,4.3c2.3,7.6,4.5,15.3,6.7,22.9c0.2,0.7,0.5,1.5,1,2.2c0.4-1.2,0.7-2.3,1.1-3.5c2-6.8,4-13.7,6.1-20.5
				c1.2-4,3.2-5.5,7.3-5.5c2.6,0,5.2,0,7.7,0c2.2,0,3.1,1,2.6,3.1c-0.7,2.7-1.6,5.4-2.4,8c-3.9,12.2-7.9,24.5-11.8,36.7
				c-1.1,3.3-3.2,4.7-6.6,4.8c-1.9,0-3.8,0-5.7,0c-3.4,0-5.6-1.6-6.6-4.8c-2.7-8.7-5.5-17.4-8.2-26.1c-0.1-0.5-0.3-0.9-0.6-1.8
				c-0.3,0.8-0.4,1.2-0.6,1.6c-2.8,8.7-5.5,17.5-8.3,26.2c-1,3.3-3.2,4.8-6.7,4.8c-2,0-3.9,0-5.9,0c-3.2,0-5.3-1.6-6.3-4.6
				c-4.3-13.3-8.5-26.5-12.8-39.8c-0.4-1.4-0.9-2.7-1.3-4.1c-0.2-0.7-0.3-1.4-0.3-2.1c0-1.4,0.7-2.1,2.1-2.1c3.2,0,6.3-0.1,9.5,0
				c2.9,0.1,5,1.8,5.9,4.6c2.3,7.8,4.6,15.6,7,23.4c0.1,0.5,0.3,0.9,0.4,1.4C301.5,82.1,301.6,82.1,301.7,82.1z"/>
			<path class="st1" d="M256.8,101.1c-0.8,0.5-1.5,0.9-2.2,1.3c-5,3.1-10.6,4.1-16.4,3.9c-3.8-0.2-7.4-0.8-10.9-2.4
				c-6.3-2.9-9.8-8.3-9.6-14.7c0.2-7.2,3.9-11.9,10.5-14.5c3.5-1.4,7.2-2,11-2c4.9,0,9.9,0,14.8,0c1.3,0,1.6-0.4,1.5-1.6
				c-0.7-6.1-3.2-8.5-9.4-8.5c-2.5,0-4.9,0.3-7.1,1.5c-0.8,0.5-1.6,1.1-2.3,1.8c-1.5,1.7-3.3,2.5-5.5,2.5c-2.1,0-4.2,0-6.3,0
				c-2.5,0-3.6-1.3-3.4-3.8c0.4-4.9,3-8.1,7.4-10.1c3.6-1.6,7.4-2.2,11.3-2.6c5.4-0.4,10.8-0.6,16.1,0.8c5.8,1.4,10.5,4.3,13.3,9.8
				c1.5,3,2.1,6.1,2.1,9.4c0,10,0,20,0,30.1c0,2.4-1,3.3-3.3,3.3c-2.6,0-5.2,0-7.7,0c-2.6,0-3.5-0.8-3.6-3.5
				C256.9,101.7,256.8,101.5,256.8,101.1z M247.2,83.6C247.2,83.6,247.2,83.6,247.2,83.6c-2.4,0.1-4.9,0-7.3,0.1
				c-2.4,0.1-4.4,1.2-5.5,3.5c-1.6,3.4,0.4,7.1,4.3,7.9c5.9,1.2,11.2-0.7,16.2-3.7c0.3-0.2,0.5-0.8,0.5-1.3c0.1-1.7,0-3.5,0-5.2
				c0-1-0.4-1.3-1.3-1.3C251.8,83.6,249.5,83.6,247.2,83.6z"/>
			<path class="st1" d="M439.5,101.4c-1.6-0.2-3-0.3-4.3-0.6c-4.5-0.8-8.1-3.1-10.9-6.7c-3.1-4-5-8.5-6.5-13.2
				c-2.6-8.3-5.1-16.6-7.5-24.9c-0.6-2,0.3-3.2,2.4-3.2c3,0,6.1,0,9.1,0c2.4,0,4,1.2,4.7,3.6c2.3,7.4,4.5,14.8,6.8,22.2
				c0.9,3,2.1,5.9,4.1,8.4c1.1,1.3,2.4,2.3,4.1,2.6c1,0.2,1.5,0,1.8-1.1c2.7-9.8,5.4-19.6,8.1-29.4c0.3-1,0.6-2.1,0.9-3.1
				c0.6-2.1,2.1-3.2,4.3-3.2c3,0,6,0,9,0c2.3,0,3.2,1.2,2.6,3.3c-4.3,15.6-8.5,31.3-12.9,46.9c-1,3.6-2.6,7.1-4.3,10.4
				c-3.2,6.1-8.5,9.3-15.4,9.2c-4.2,0-8.4-0.5-12.6-1c-2.1-0.2-3-1.4-3-3.5c0-1.6,0-3.1,0-4.7c0-1.9,1.1-3,3-3
				c2,0.1,4.1,0.3,6.1,0.6c2.9,0.5,5.4-0.3,7.3-2.5C437.9,106.5,438.8,104.1,439.5,101.4z"/>
			<path class="st1" d="M177.5,78.9c0-7.6-0.2-15.1,0.1-22.7c0.1-3,0.8-6.1,1.7-9c2-6,6.7-9.1,12.6-10.5c6.5-1.6,13.1-1.5,19.7-0.9
				c1.7,0.1,3.4,0.4,5,0.7c2.1,0.4,3,1.5,3,3.6c0,1.5,0,2.9,0,4.4c-0.1,2.1-1.1,3.2-3.3,3.2c-1.5,0-3-0.1-4.5-0.4
				c-4-0.8-8-0.5-11.9,0.5c-3.8,0.9-5.6,3.2-6.1,7.6c-0.2,1.3-0.2,2.7-0.3,4c-0.1,1.2,0.3,1.6,1.6,1.6c4.9-0.1,9.9,0,14.8,0
				c2.6,0,3.5,0.9,3.6,3.5c0,1.6,0,3.2,0,4.8c0,2.1-1.1,3.2-3.3,3.2c-5,0-10.1,0-15.1,0c-1.2,0-1.6,0.4-1.6,1.6c0,9.2,0,18.4,0,27.7
				c0,2.8-0.9,3.7-3.7,3.7c-2.9,0-5.9,0-8.8,0c-2.7,0-3.6-0.9-3.6-3.6C177.4,94.1,177.4,86.5,177.5,78.9
				C177.4,78.9,177.5,78.9,177.5,78.9z"/>
			<path class="st1" d="M383.8,58.5c1.5-1,2.6-1.8,3.7-2.5c5.2-3.4,11-4.4,17.1-4.4c1.7,0,2.8,1.1,2.9,2.9c0.1,2.4,0.1,4.9,0,7.3
				c-0.1,1.9-1.1,2.9-3,2.9c-2.2,0-4.5,0-6.7-0.2c-4.4-0.4-8,1.2-11.3,4.1c-2,1.8-2.9,3.7-2.8,6.5c0.2,8.8,0.1,17.6,0.1,26.5
				c0,2.8-0.9,3.7-3.8,3.7c-3.1,0-6.1,0-9.2,0c-2.1,0-3.2-1.1-3.2-3.2c0-15.4,0-30.8,0-46.2c0-2.1,1.1-3.2,3.2-3.2
				c3.3,0,6.6,0,9.9,0c2,0,3,1.1,3.1,3.1C383.8,56.5,383.8,57.4,383.8,58.5z"/>
			<path class="st0" d="M247.2,83.6c2.3,0,4.6,0,6.9,0c1,0,1.4,0.3,1.3,1.3c-0.1,1.7,0,3.5,0,5.2c0,0.4-0.2,1.1-0.5,1.3
				c-5,3-10.3,4.9-16.2,3.7c-3.9-0.8-5.9-4.5-4.3-7.9c1.1-2.3,3.1-3.3,5.5-3.5C242.3,83.5,244.8,83.6,247.2,83.6
				C247.2,83.6,247.2,83.6,247.2,83.6z"/>
		</g>
		<g>
			<path class="st2" d="M152.3,78.5c0,34.5-27.9,62.4-62.4,62.4c-6.6,0-12.9-1-18.8-2.9c-8.9-2.8-17-7.6-23.7-13.9
				c-12.2-11.4-19.9-27.6-19.9-45.6C27.6,44,55.5,16.1,90,16.1c7.5,0,14.6,1.3,21.2,3.7c8.6,3.1,16.4,8.1,22.7,14.4
				C145.3,45.5,152.3,61.2,152.3,78.5z"/>
			<path class="st1" d="M118.9,105l-8.4-4.2c0,0-14.3,26.1-39.4,37.2c-8.9-2.8-17-7.6-23.7-13.9c5.5-0.8,14.4-3.6,23.7-12.8
				C86.5,96.3,90,88,90,88l-6.6-4.4c-2.3-1.5-1.8-4.9,0.7-5.8l28.8-10c2-0.7,4.1,0.6,4.3,2.7l4.3,32.6
				C121.8,104.6,120.2,105.6,118.9,105z"/>
			<path class="st1" d="M127.6,68.9c-0.7,1.8-3.3,1.5-3.6-0.4l-1.9-11l-14.2,4.4c-1.6,0.5-3-1.1-2.3-2.6c1.9-4,4.6-10.7,6.8-19.3
				c2-8.2,0.6-15.4-1.1-20.1c8.6,3.1,16.4,8.1,22.7,14.4C135.1,47.3,130.6,61.2,127.6,68.9z"/>
		</g>
	</g>
</g>
</svg>
