<svg xmlns="http://www.w3.org/2000/svg" width="1184.022" height="379.01" viewBox="0 0 1184.022 379.01">
  <path id="Arabic_Logo.svg" data-name="Arabic Logo.svg" d="M216.808,174.769h-50.45v52.017h50.45Zm.776,88.119H160.537V458.536a26.427,26.427,0,0,1-1.553,8.152q-3.109,6.6-12.806,6.6h-39.2V531.9h39.2a64.2,64.2,0,0,0,27.553-6.6q12.807-4.659,22.9-16.3a84.173,84.173,0,0,0,16.3-22.9,80.091,80.091,0,0,0,4.657-27.562v-8.152H159.932V393.32h57.652Zm224.062,1.553h-58.6V393.32H160.6v57.064h-.331V393.32H441.646ZM373.614,482.992H322.777V535.01h50.837Zm63.257,0h-50.45V535.01h50.45Zm351.078-220.1h-110.6a68.25,68.25,0,0,0-29.494,6.6,59.883,59.883,0,0,0-22.9,14.751,106.064,106.064,0,0,0-16.3,24.456A80.066,80.066,0,0,0,604,336.256V393.32H159.927v57.064H787.949v-187.5ZM729.35,393.32h-68.3V336.256q0-5.431,1.552-8.152,6.594-6.6,14.747-6.6h52V393.32ZM876.034,174.769H818.987V450.384h57.047ZM1156.66,297.593c-15.7,1.117-17.33,3.523-17.33,24.573V461.354c59.58-11.6,104.73-64.525,104.73-127.847,0-71.828-58.04-130.253-129.39-130.253S985.278,261.679,985.278,333.507c0,62.119,43.362,114.186,101.222,127.159V263.913c37.98,11.685,54.54,17.613,94.48,33.079l-2.64-.43Zm-3.76,92.878a7.132,7.132,0,1,1,7.09-7.131,7.132,7.132,0,0,1-7.09,7.131ZM1114.67,156c-97.3,0-176.249,79.475-176.249,177.422A177.357,177.357,0,0,0,1058,501.392c23.3-2.664,27.65-9.279,28.33-28.525-64.44-13.232-113.087-70.711-113.087-139.446,0-78.444,63.417-142.367,141.427-142.367s141.42,63.837,141.42,142.367c0,69.938-50.44,128.276-116.59,140.133.86,20.105,6.15,25.776,31.16,28.181A177.39,177.39,0,0,0,1291,333.507C1290.91,235.474,1211.97,156,1114.67,156Z" transform="translate(-106.978 -156)" fill="#eb1f27" fill-rule="evenodd"/>
</svg>
