<svg xmlns="http://www.w3.org/2000/svg" width="160" height="38" viewBox="0 0 160 38">
  <metadata><?xpacket begin="﻿" id="W5M0MpCehiHzreSzNTczkc9d"?>
<x:xmpmeta xmlns:x="adobe:ns:meta/" x:xmptk="Adobe XMP Core 5.6-c142 79.160924, 2017/07/13-01:06:39        ">
   <rdf:RDF xmlns:rdf="http://www.w3.org/1999/02/22-rdf-syntax-ns#">
      <rdf:Description rdf:about=""/>
   </rdf:RDF>
</x:xmpmeta>
                                                                                                    
                                                                                                    
                                                                                                    
                                                                                                    
                                                                                                    
                                                                                                    
                                                                                                    
                                                                                                    
                                                                                                    
                                                                                                    
                                                                                                    
                                                                                                    
                                                                                                    
                                                                                                    
                                                                                                    
                                                                                                    
                                                                                                    
                                                                                                    
                                                                                                    
                                                                                                    
                           
<?xpacket end="w"?></metadata>
<defs>
    <style>
      .cls-1 {
        fill: #eb1f27;
        fill-rule: evenodd;
      }
    </style>
  </defs>
  <path id="English_Logo.svg" data-name="English Logo.svg" class="cls-1" d="M1015.31,187.662l-7.96-18.507-5.62,13.116h5.62v5.391H993l1.746-3.755,9.924-21.753H1010l11.08,25.508h-5.77Zm10.31,0V162.181h5.31l7.78,16.724,8.48-16.724h4.86v25.481h-5.4V174.2l-6.03,13.465h-3.83l-5.77-13.156v13.156h-5.4Zm42.95,0v-11.2l-10.92-14.324h8.05l5.71,7.484,5.69-7.484h8.08l-10.93,14.324v11.2h-5.68Zm33.63-20.318-12.93.027v-5.19h19.56V167.3l-12.58,14.873h12.58v5.485h-19.55V182.19Zm36.03,4.219c-1.73.122-1.9,0.387-1.9,2.7v15.3a14.217,14.217,0,1,0-5.81-.076V167.861c4.17,1.284,5.99,1.936,10.38,3.636l-0.29-.048Zm-0.41,10.208a0.784,0.784,0,1,1,.78-0.784A0.794,0.794,0,0,1,1137.82,181.771ZM1133.61,156a19.517,19.517,0,0,0-6.23,37.962c2.56-.292,3.04-1.02,3.12-3.135a15.542,15.542,0,1,1,5.84.076c0.1,2.209.68,2.833,3.43,3.1A19.521,19.521,0,0,0,1133.61,156Z" transform="translate(-993 -156)"/>
</svg>
