<svg style="position: absolute; width: 0; height: 0; overflow: hidden;" version="1.1" xmlns="http://www.w3.org/2000/svg" xmlns:xlink="http://www.w3.org/1999/xlink">
    <defs>
        <symbol id="icon-twitter" viewBox="0 0 26 28">
            <title>twitter</title>
            <path d="M25.312 6.375c-0.688 1-1.547 1.891-2.531 2.609 0.016 0.219 0.016 0.438 0.016 0.656 0 6.672-5.078 14.359-14.359 14.359-2.859 0-5.516-0.828-7.75-2.266 0.406 0.047 0.797 0.063 1.219 0.063 2.359 0 4.531-0.797 6.266-2.156-2.219-0.047-4.078-1.5-4.719-3.5 0.313 0.047 0.625 0.078 0.953 0.078 0.453 0 0.906-0.063 1.328-0.172-2.312-0.469-4.047-2.5-4.047-4.953v-0.063c0.672 0.375 1.453 0.609 2.281 0.641-1.359-0.906-2.25-2.453-2.25-4.203 0-0.938 0.25-1.797 0.688-2.547 2.484 3.062 6.219 5.063 10.406 5.281-0.078-0.375-0.125-0.766-0.125-1.156 0-2.781 2.25-5.047 5.047-5.047 1.453 0 2.766 0.609 3.687 1.594 1.141-0.219 2.234-0.641 3.203-1.219-0.375 1.172-1.172 2.156-2.219 2.781 1.016-0.109 2-0.391 2.906-0.781z"></path>
        </symbol>
        <symbol id="icon-facebook" viewBox="0 0 16 28">
            <title>facebook</title>
            <path d="M14.984 0.187v4.125h-2.453c-1.922 0-2.281 0.922-2.281 2.25v2.953h4.578l-0.609 4.625h-3.969v11.859h-4.781v-11.859h-3.984v-4.625h3.984v-3.406c0-3.953 2.422-6.109 5.953-6.109 1.687 0 3.141 0.125 3.563 0.187z"></path>
        </symbol>

        <symbol id="icon-linkedin" viewBox="0 0 24 28">
            <title>linkedin</title>
            <path d="M5.453 9.766v15.484h-5.156v-15.484h5.156zM5.781 4.984c0.016 1.484-1.109 2.672-2.906 2.672v0h-0.031c-1.734 0-2.844-1.188-2.844-2.672 0-1.516 1.156-2.672 2.906-2.672 1.766 0 2.859 1.156 2.875 2.672zM24 16.375v8.875h-5.141v-8.281c0-2.078-0.75-3.5-2.609-3.5-1.422 0-2.266 0.953-2.641 1.875-0.125 0.344-0.172 0.797-0.172 1.266v8.641h-5.141c0.063-14.031 0-15.484 0-15.484h5.141v2.25h-0.031c0.672-1.062 1.891-2.609 4.672-2.609 3.391 0 5.922 2.219 5.922 6.969z"></path>
        </symbol>

        <symbol id="icon-arrow" viewBox="0 0 13.03 11.06">
            <title>arrow</title>
            <path d="M1038.52,1348.36l4.09,4.08a1.45,1.45,0,1,1-2.05,2.05l-4.08-4.09A1.442,1.442,0,0,1,1038.52,1348.36Zm4.09,4.08a1.461,1.461,0,0,1,0,2.05l-4.09,4.08a1.442,1.442,0,0,1-2.04-2.04l4.08-4.09A1.461,1.461,0,0,1,1042.61,1352.44Zm-11.11-.44h10a1.5,1.5,0,0,1,0,3h-10A1.5,1.5,0,0,1,1031.5,1352Z" transform="translate(-1030 -1347.94)"/>
        </symbol>
        <symbol id="icon-chart" viewBox="0 0 40.03 40.03">
            <title>chart</title>
            <path d="M1079.47,1694.05a2.578,2.578,0,0,0-2.76,2.39,2.53,2.53,0,0,0,.11.91l-3.27,2.83a2.388,2.388,0,0,0-.89-0.23,2.541,2.541,0,0,0-2.07.83l-3.87-1.26a2.575,2.575,0,0,0-5.13.09,2.355,2.355,0,0,0,.11.92l-3.27,2.83a2.575,2.575,0,1,0,1.5,2.52,2.558,2.558,0,0,0-.11-0.92l3.27-2.83a2.4,2.4,0,0,0,.89.24,2.549,2.549,0,0,0,2.07-.84l3.87,1.27a2.576,2.576,0,0,0,5.13-.1,2.5,2.5,0,0,0-.1-0.91l3.26-2.84a2.45,2.45,0,0,0,.89.24A2.577,2.577,0,1,0,1079.47,1694.05Zm-22.18,12.59a0.941,0.941,0,0,1-.87-1.01,0.927,0.927,0,0,1,1-.87A0.942,0.942,0,1,1,1057.29,1706.64Zm6.8-5.9a0.943,0.943,0,1,1,.14-1.88,0.936,0.936,0,0,1,.87,1.01A0.948,0.948,0,0,1,1064.09,1700.74Zm8.32,2.72a0.943,0.943,0,1,1,1.01-.87A0.941,0.941,0,0,1,1072.41,1703.46Zm6.81-5.9a0.956,0.956,0,0,1-.88-1.01,0.941,0.941,0,0,1,1.01-.87A0.942,0.942,0,1,1,1079.22,1697.56Zm0.25,8.19a2.585,2.585,0,0,0-2.76,2.39,2.5,2.5,0,0,0,.11.91l-3.27,2.83a2.6,2.6,0,0,0-.89-0.23,2.549,2.549,0,0,0-2.07.84l-3.87-1.27a2.576,2.576,0,0,0-5.13.1,2.3,2.3,0,0,0,.11.91l-3.27,2.83a2.575,2.575,0,1,0,1.5,2.52,2.53,2.53,0,0,0-.11-0.91l3.27-2.83a2.6,2.6,0,0,0,.89.23,2.541,2.541,0,0,0,2.07-.83l3.87,1.26a2.576,2.576,0,1,0,5.03-1.01l3.26-2.83a2.656,2.656,0,0,0,.89.23A2.577,2.577,0,1,0,1079.47,1705.75Zm-22.18,12.59a0.942,0.942,0,0,1,.13-1.88,0.956,0.956,0,0,1,.88,1.01A0.941,0.941,0,0,1,1057.29,1718.34Zm6.8-5.9a0.943,0.943,0,1,1,1.01-.87A0.948,0.948,0,0,1,1064.09,1712.44Zm8.32,2.72a0.932,0.932,0,0,1-.87-1A0.942,0.942,0,1,1,1072.41,1715.16Zm6.81-5.9a0.942,0.942,0,1,1,1.01-.87A0.941,0.941,0,0,1,1079.22,1709.26Zm9.5,13.48-1.66-1.66a0.94,0.94,0,0,0-1.6.67,0.924,0.924,0,0,0,.28.66l0.06,0.06h-32.58a0.717,0.717,0,0,1-.72-0.72v-32.58l0.06,0.06a0.961,0.961,0,0,0,1.32,0,0.924,0.924,0,0,0,.28-0.66,0.947,0.947,0,0,0-.28-0.67l-1.66-1.66a0.942,0.942,0,0,0-1.32,0l-1.66,1.66a0.954,0.954,0,0,0,0,1.33,0.942,0.942,0,0,0,1.32,0l0.06-.06v32.58a2.6,2.6,0,0,0,2.6,2.59h32.58l-0.06.06a0.93,0.93,0,0,0,0,1.33,0.942,0.942,0,0,0,1.32,0l1.66-1.66a0.924,0.924,0,0,0,.28-0.66A0.947,0.947,0,0,0,1088.72,1722.74Z" transform="translate(-1048.97 -1685.97)"/>
        </symbol>
        <symbol id="icon-chat" viewBox="0 0 29 27">
            <title>chat</title>
            <path d="M1423.48,677.993h-19.96a4.486,4.486,0,0,0-4.52,4.455V695.59a4.486,4.486,0,0,0,4.52,4.455h5.36l1.76,4.956,7.36-4.956h5.48a4.492,4.492,0,0,0,4.52-4.455V682.448A4.492,4.492,0,0,0,1423.48,677.993ZM1408.19,691.3a1.754,1.754,0,1,1,1.78-1.754A1.77,1.77,0,0,1,1408.19,691.3Zm5.48,0a1.754,1.754,0,1,1,1.78-1.754A1.77,1.77,0,0,1,1413.67,691.3Zm5.48,0a1.754,1.754,0,1,1,1.78-1.754A1.77,1.77,0,0,1,1419.15,691.3Z" transform="translate(-1399 -678)"/>
        </symbol>
        <symbol id="icon-cloud" viewBox="0 0 43 41">
            <title>cloud</title>
            <path d="M1204.95,240.432h0c0.05-.189.09-0.331,0.15-0.52a11.966,11.966,0,0,0-19.22-12.548h0a8.537,8.537,0,0,0-2.51-1.187,8.645,8.645,0,0,0-10.63,5.9,10.288,10.288,0,0,0-.37,2.151,7.153,7.153,0,0,0-1.53,13.983l0.23,0.067,27.11,7.851,0.14,0.041A8.642,8.642,0,0,0,1204.95,240.432Zm-5.99,13.361-24.85-7.2-2.44-.708c-0.05-.013-0.09-0.027-0.14-0.04a4.685,4.685,0,0,1-3.15-5.79,4.625,4.625,0,0,1,4.18-3.357l2.23-.124,0.09-2.233a5.5,5.5,0,0,1,.24-1.522,6.09,6.09,0,0,1,7.56-4.278,5.368,5.368,0,0,1,1.79.875l1.52,1.058,1.43-1.229a9.538,9.538,0,0,1,15.33,9.983c-0.04.142-.08,0.284-0.13,0.426l-0.64,1.867,1.69,1A6.179,6.179,0,0,1,1198.96,253.793Zm-13.75,3.666,1.37-4.687-2.35-.68-1.37,4.687a4.489,4.489,0,0,0-3.98,2.491l-8.74-2.531-0.69,2.367,9.02,2.612a4.395,4.395,0,0,0,7.8,2.258l9.02,2.613,0.69-2.367-8.74-2.531A4.389,4.389,0,0,0,1185.21,257.459Zm-2.91,5.625a1.972,1.972,0,1,1,2.43-1.349A1.973,1.973,0,0,1,1182.3,263.084Z" transform="translate(-1165.75 -224.5)"/>
        </symbol>
        <symbol id="icon-dashboard" viewBox="0 0 47 47">    
            <title>dashboard</title>        
            <path d="M868.413,3335.28a4.748,4.748,0,0,0-7.163,4.09,4.873,4.873,0,0,0,.032.56c-5.551,1.16-9.532,3.29-9.532-2.93a14.25,14.25,0,0,1,28.5,0c0,6.22-3.981,4.09-9.532,2.93a4.873,4.873,0,0,0,.032-0.56,4.726,4.726,0,0,0-.658-2.41l6.048-6.05a1.166,1.166,0,0,0,0-1.67,1.2,1.2,0,0,0-1.676-.01ZM866,3356a19,19,0,1,0-19-19A19,19,0,0,0,866,3356Zm0-14.25a2.375,2.375,0,1,0-2.375-2.38A2.374,2.374,0,0,0,866,3341.75Z" transform="translate(-843 -3316)"/>
        </symbol>
        <symbol id="icon-integration" viewBox="0 0 44 44">
            <title>integration</title>
            <path d="M272.588,2461.59h-6.176V2470a3.089,3.089,0,1,1-2.059,0v-8.41h-3.088v4.63a2.572,2.572,0,0,1-2.574,2.57H258a3.085,3.085,0,1,1,0-2.05h0.69a0.515,0.515,0,0,0,.515-0.52v-4.63a7.208,7.208,0,0,1-1.043-14.34,9.269,9.269,0,0,1,17.1-1.04,7.194,7.194,0,0,1,.931-0.06,6.723,6.723,0,0,1,6.547,5.22,5.148,5.148,0,0,1-.885,10.22h-2.059v4.63a0.515,0.515,0,0,0,.515.52H281a3.085,3.085,0,1,1,0,2.05h-0.69a2.571,2.571,0,0,1-2.574-2.57v-4.63h-3.088V2470a3.089,3.089,0,1,1-2.059,0v-8.41h0Zm1.03,12.35a1.03,1.03,0,1,0-1.03-1.03A1.029,1.029,0,0,0,273.618,2473.94Zm-8.236,0a1.03,1.03,0,1,0-1.029-1.03A1.029,1.029,0,0,0,265.382,2473.94Zm-10.294-5.15a1.025,1.025,0,1,0-1.029-1.03A1.029,1.029,0,0,0,255.088,2468.79Zm28.824,0a1.025,1.025,0,1,0-1.03-1.03A1.029,1.029,0,0,0,283.912,2468.79Z" transform="translate(-248 -2439)"/>
        </symbol>
        <symbol id="icon-features" viewBox="0 0 38 26">
            <title>features</title>
            <path d="M799.654,849.818H786v2.364h13.657a4.661,4.661,0,0,0,9,0h6.307v-2.364h-6.267a4.615,4.615,0,0,0-4.5-3.444A4.663,4.663,0,0,0,799.654,849.818Zm6.789,1.162a2.286,2.286,0,0,1-2.29,2.283,2.283,2.283,0,1,1,0-4.566A2.285,2.285,0,0,1,806.443,850.98ZM792.5,860.192H786v2.363H792.5A4.614,4.614,0,0,0,797,866c2.169,0,3.977-1.482,5.222-3.444H815v-2.363H802.225c-1.245-2-3.053-3.445-5.222-3.445A4.7,4.7,0,0,0,792.5,860.192Zm6.789,1.2a2.285,2.285,0,0,1-2.29,2.282,2.283,2.283,0,1,1,0-4.566A2.286,2.286,0,0,1,799.293,861.394ZM792.5,839.445H786v2.363H792.5a4.66,4.66,0,0,0,9,0h13.457v-2.363H801.542a4.614,4.614,0,0,0-4.5-3.445A4.708,4.708,0,0,0,792.5,839.445Zm6.789,1.2A2.286,2.286,0,0,1,797,842.93a2.284,2.284,0,1,1,0-4.567A2.286,2.286,0,0,1,799.293,840.646Z" transform="translate(-782 -834)"/>
        </symbol>
        <symbol id="shape-cloud" viewBox="0 0 1282.6 855.7">
            <title>cloud shape</title>
            <path d="M1177.3,339.5c-48-47.7-110.8-78.5-184.8-84.4c-16.4-64.7-54.6-120-108.4-163.5
	C822.6,41.6,743.3,14.1,661,14c-67.4-0.3-133.4,19.3-189.7,56.2c-46.1,30-83.9,71.1-110.2,119.4c-5.5-0.3-11.1-0.4-16.6-0.4
	c-43.3-0.1-86.1,8.6-125.9,25.6c-77.7,33.3-139.3,95.4-172,173.3C29.6,428.2,20.9,471.3,21,514.8
	c-0.2,173.1,133.5,316.1,304.6,325.7c2,0.2,4,0.3,5.9,0.3c4,0.2,8.1,0.2,12.2,0.2c3.8,0,7.7,0,11.8-0.2l596.6,0.8l10.3,0
	c2.3,0,4.7-0.1,7-0.4c78-3.8,150.9-34.9,205.4-87.5c56-54.1,86.9-125.5,87-200.9C1261.7,469.4,1231.8,393.6,1177.3,339.5z"/>
        </symbol>
        <symbol id="shape-circle" viewBox="0 0 124 124">
            <title>circle shape</title>
            <circle cx="62" cy="62" r="60.3"/>
        </symbol>
        <symbol id="icon-time" viewBox="0 0 24 24">
            <title>time</title>
            <path d="M11.99 2C6.47 2 2 6.48 2 12s4.47 10 9.99 10C17.52 22 22 17.52 22 12S17.52 2 11.99 2zM12 20c-4.42 0-8-3.58-8-8s3.58-8 8-8 8 3.58 8 8-3.58 8-8 8z"/>
            <path d="M0 0h24v24H0z" fill="none"/>
            <path d="M12.5 7H11v6l5.25 3.15.75-1.23-4.5-2.67z"/>
        </symbol>
        <symbol id="icon-bicycle" viewBox="0 0 49.063 31.406">
          <title>bicycle</title>
          <path d="M307.55,855.974a9.749,9.749,0,0,0-9.45-2.906l-3.208-9.667h5.47a2.022,2.022,0,0,1,0,4.044,0.85,0.85,0,0,0,0,1.7,3.722,3.722,0,0,0,0-7.443h-6.645c-0.015,0-.029,0-0.045,0s-0.06,0-.091.009a0.826,0.826,0,0,0-.086.02c-0.015,0-.031,0-0.046.01l-0.028.013a0.791,0.791,0,0,0-.084.037c-0.023.012-.046,0.024-0.068,0.038a0.542,0.542,0,0,0-.067.048,0.818,0.818,0,0,0-.064.053,0.589,0.589,0,0,0-.054.058,0.631,0.631,0,0,0-.053.063c-0.016.023-.029,0.046-0.043,0.07a0.68,0.68,0,0,0-.038.07,0.721,0.721,0,0,0-.03.077,0.736,0.736,0,0,0-.024.08,0.675,0.675,0,0,0-.014.076c0,0.031-.008.061-0.009,0.092,0,0.011,0,.02,0,0.031s0,0.03,0,.046a0.865,0.865,0,0,0,.009.089c0,0.03.012,0.059,0.019,0.087s0,0.031.01,0.046l1.381,4.16H278.314v-3.347l2.129,0.52a0.869,0.869,0,0,0,.2.024,0.85,0.85,0,0,0,.2-1.676l-6.354-1.551a0.85,0.85,0,0,0-.4,1.651l2.545,0.621a0.857,0.857,0,0,0-.014.144v4.291L270.5,862.245a0.907,0.907,0,0,0-.051.163,0.863,0.863,0,0,0,0,.336c0,0.026.016,0.051,0.023,0.076s0.015,0.055.025,0.081,0.027,0.052.041,0.078,0.022,0.046.036,0.067a0.615,0.615,0,0,0,.05.062,0.7,0.7,0,0,0,.054.066c0.02,0.021.044,0.037,0.066,0.056a0.711,0.711,0,0,0,.06.049,0.838,0.838,0,0,0,.308.131,0.87,0.87,0,0,0,.168.017h7.5a8.072,8.072,0,0,1-8,7.227c-0.141,0-.283,0-0.426-0.011a8.077,8.077,0,0,1,.842-16.132,0.85,0.85,0,0,0,.089-1.7,9.776,9.776,0,0,0-1.02,19.526c0.175,0.008.348,0.013,0.521,0.013a9.753,9.753,0,0,0,9.695-8.927h0.992a3.849,3.849,0,1,0,6.082-3.919l7.94-8.915,4.066,12.254a0.848,0.848,0,0,0,.8.581,0.826,0.826,0,0,0,.267-0.044,0.851,0.851,0,0,0,.537-1.074l-2.529-7.622a8.071,8.071,0,1,1-3.713,1.934,0.848,0.848,0,1,0-1.144-1.253A9.762,9.762,0,1,0,307.55,855.974Zm-26.079,5.753H280.48a9.807,9.807,0,0,0-4.751-7.568l1.792-4.269,4.867,10.082A3.86,3.86,0,0,0,281.471,861.727Zm-6.407-5.984a8.105,8.105,0,0,1,3.714,5.985h-6.227Zm10.16,8.994a2.161,2.161,0,1,1,2.154-2.16A2.159,2.159,0,0,1,285.224,864.737Zm0.7-5.954a3.826,3.826,0,0,0-2.129.211l-4.98-10.315h16.04l0.018,0.055Z" transform="translate(-261.031 -840.938)"/>
        </symbol>
        <symbol id="icon-car" viewBox="0 0 53 28">
          <title>car</title>
          <path id="car.svg" class="cls-1" d="M528.344,852.3h3.525v-5.265a4.061,4.061,0,0,1,3.811-4.019v-0.014h19.536l4.5,9.3h6.958a7.211,7.211,0,0,1,1.5,14.289,7.169,7.169,0,0,1-13.156.163H540.357a7.171,7.171,0,0,1-13.13-.094A7.214,7.214,0,0,1,528.344,852.3Zm10.121-7.954h-2.6a0.044,0.044,0,0,0,0,.01,2.706,2.706,0,0,0-2.63,2.679V852.3h5.231V844.35Zm15.889,0H539.83V852.3H558.2Zm7.2,25.3a5.684,5.684,0,1,0-5.769-5.683A5.733,5.733,0,0,0,561.554,869.65Zm-27.741,0a5.684,5.684,0,1,0-5.768-5.683A5.733,5.733,0,0,0,533.813,869.65ZM526.8,865.2a6.913,6.913,0,0,1-.117-1.236,7.134,7.134,0,0,1,14.266,0,6.876,6.876,0,0,1-.154,1.444h13.781a6.876,6.876,0,0,1-.153-1.444,7.134,7.134,0,0,1,14.266,0,6.961,6.961,0,0,1-.1,1.125,5.866,5.866,0,0,0-1.918-11.443H528.344A5.868,5.868,0,0,0,526.8,865.2Zm25.2-9.594h-5.174v1.345H552v-1.345Z" transform="translate(-521 -843)"/>
        </symbol>
        <symbol id="icon-train" viewBox="0 0 33 37">
          <title>train</title>
          <path id="train.svg" class="cls-1" d="M819.814,838H801.185A7.119,7.119,0,0,0,794,845.035V861.19a7.119,7.119,0,0,0,7.185,7.035h18.629A7.119,7.119,0,0,0,827,861.19V845.035A7.119,7.119,0,0,0,819.814,838Zm-18.629,1.563h18.629a5.555,5.555,0,0,1,5.525,4.69H795.661A5.555,5.555,0,0,1,801.185,839.563ZM795.6,859.887v-14.07H825.4v14.07H795.6Zm24.217,6.775H801.185a5.541,5.541,0,0,1-5.575-5.212h29.779A5.54,5.54,0,0,1,819.814,866.662Zm-9.6-26.213a1.544,1.544,0,1,1-1.576,1.544A1.561,1.561,0,0,1,810.214,840.449Zm-9.048,21.888a1.544,1.544,0,1,1-1.577,1.543A1.56,1.56,0,0,1,801.166,862.337Zm18.629,0a1.544,1.544,0,1,1-1.577,1.543A1.56,1.56,0,0,1,819.8,862.337ZM795.419,875h2.528l4.17-5.733H800Zm22.887-5.733,4.17,5.733H825l-4.576-5.733h-2.122Zm-6.776-11.194-7.471-4.516,0.559-.887,7.472,4.516Zm-5.845-9.571,11.13,6.775-0.562.885-11.13-6.775Z" transform="translate(-794 -838)"/>
        </symbol>
        <symbol id="icon-plane" viewBox="0 0 63.97 28">
          <title>plane</title>
          <path id="plane.svg" class="cls-1" d="M1087.58,855.553l-15.54,2.123-0.15.019-14.23,8.407-0.28.039-6.36.868a0.88,0.88,0,0,1-.78-0.4,0.693,0.693,0,0,1,.18-0.814l6.43-6.048a23.919,23.919,0,0,1-12.36-1.9,27.293,27.293,0,0,1-4.37-2.993l-9.33,1.273a0.711,0.711,0,1,1-.19-1.409l8.12-1.11a19.764,19.764,0,0,1-2.17-2.145l-7.32-7.617a0.659,0.659,0,0,1-.17-0.695,0.677,0.677,0,0,1,.58-0.51l4.94-.675a0.758,0.758,0,0,1,.44.083l10.1,6.376,40.69-5.558a6.365,6.365,0,0,1,7.12,5.634A6.126,6.126,0,0,1,1087.58,855.553Zm-34.57,9.748,4.03-.551,17.43-10.279-11.59,1.582h0Zm33-21.023-40.97,5.6a0.792,0.792,0,0,1-.45-0.083l-10.1-6.376-3.25.444,6.33,6.676a26.566,26.566,0,0,0,3.06,2.814l8.33-1.139a0.712,0.712,0,1,1,.2,1.41l-7,.955a31.6,31.6,0,0,0,3.08,1.949c6.09,2.9,13.11,1.585,13.18,1.576l0.28-.039,3.06-2.859a0.547,0.547,0,0,1,.5-0.5l15.55-2.123a0.421,0.421,0,0,1,.29.032,0.07,0.07,0,0,1,.08.061c0.07-.01.08,0.061,0.15,0.051a0.65,0.65,0,0,1,.28.464h0a0.43,0.43,0,0,1-.03.292c0.01,0.07-.06.08-0.05,0.151s-0.06.08-.05,0.15a0.391,0.391,0,0,1-.2.17l-3.32,1.962,12.43-1.7a4.7,4.7,0,0,0,4.14-5.448A5,5,0,0,0,1086.01,844.278Zm-26,1.468a0.989,0.989,0,0,1-.4.2,0.9,0.9,0,0,1-.61-0.205l-4.23-4.591a0.814,0.814,0,0,1-.17-0.7,0.652,0.652,0,0,1,.56-0.58l6.36-.869a0.426,0.426,0,0,1,.29.032l10.5,3.018a0.711,0.711,0,0,1,.48.868,0.7,0.7,0,0,1-.87.478l-10.34-2.967-4.88.666,3.32,3.64A0.78,0.78,0,0,1,1060.01,845.746Zm13.87,4.5-0.7.1a0.712,0.712,0,1,1-.2-1.409l0.71-.1A0.711,0.711,0,1,1,1073.88,850.243Zm9.89-1.351-0.71.1a0.711,0.711,0,1,1-.19-1.409l0.71-.1A0.711,0.711,0,1,1,1083.77,848.892Zm-4.94.675-0.71.1a0.712,0.712,0,0,1-.2-1.41l0.71-.1A0.712,0.712,0,0,1,1078.83,849.567Zm-9.89,1.351-0.71.1a0.712,0.712,0,0,1-.2-1.41l0.71-.1A0.712,0.712,0,1,1,1068.94,850.918Zm-4.95.675-0.7.1a0.712,0.712,0,1,1-.2-1.409l0.71-.1A0.711,0.711,0,1,1,1063.99,851.593Zm-4.94.676-0.71.1a0.712,0.712,0,0,1-.2-1.409l0.71-.1A0.712,0.712,0,1,1,1059.05,852.269Zm29.57-4.757a0.667,0.667,0,0,1,.61-0.8l0.7-.1a0.712,0.712,0,1,1,.2,1.41l-0.71.1A0.673,0.673,0,0,1,1088.62,847.512Z" transform="translate(-1029.03 -839)"/>
        </symbol>
        <symbol id="icon-rocket" viewBox="0 0 37.03 37">
          <title>rocket</title>
          <path id="rocket.svg" class="cls-1" d="M1328.92,838.767a0.776,0.776,0,0,0-.77-0.775h-0.16a31.763,31.763,0,0,0-10.51,1.782,11.935,11.935,0,0,0-3.53,2.168c-0.08,0-.08.077-0.16,0.077l-6.68,6.738-6.6.62a3.352,3.352,0,0,0-1.84.851l-6.45,6.506a0.739,0.739,0,0,0-.16.852,0.753,0.753,0,0,0,.7.464h0.07l5.61-.542-0.54.542a0.754,0.754,0,0,0,0,1.084l0.69,0.7c-2.61,1.7-4.38,6.661-4.61,7.28a0.854,0.854,0,0,0,.16.775,0.565,0.565,0,0,0,.53.309,0.3,0.3,0,0,0,.24-0.077,2.186,2.186,0,0,0,.61-0.232,67.24,67.24,0,0,0-3.38,5.963,0.768,0.768,0,0,0,.69,1.084,0.464,0.464,0,0,0,.31-0.078,44.384,44.384,0,0,0,5.91-3.407,2.612,2.612,0,0,1-.23.619,0.854,0.854,0,0,0,.15.775,0.709,0.709,0,0,0,.54.232,0.271,0.271,0,0,0,.23-0.077c0.62-.233,5.45-2.014,7.22-4.647l0.69,0.7a0.731,0.731,0,0,0,1.07,0l0.54-.542-0.54,5.654a0.857,0.857,0,0,0,.47.774,0.442,0.442,0,0,0,.3.077,0.694,0.694,0,0,0,.54-0.232l6.45-6.5a3.16,3.16,0,0,0,.84-1.859l0.62-6.66,6.68-6.738c0.07,0,.07-0.077.07-0.154a13.018,13.018,0,0,0,2.15-3.563C1328.99,844.808,1328.92,839,1328.92,838.767Zm-34.01,17.657,4.91-4.957a1.27,1.27,0,0,1,.92-0.387l4.76-.464-5.3,5.343Zm1.22,9.6c0.85-1.859,2.23-4.26,3.61-4.956l1.08,1.084a15.17,15.17,0,0,0-3.46,3.252A3.659,3.659,0,0,1,1296.13,866.027Zm-1.46,6.583a40.2,40.2,0,0,1,3.77-5.886,10.738,10.738,0,0,0,3.76-3.1l1.38,1.394a11.055,11.055,0,0,0-3.07,3.872A69.211,69.211,0,0,1,1294.67,872.61Zm6.45-1.549c0.16-.388.39-0.852,0.62-1.317a15.247,15.247,0,0,0,3.22-3.485l1.08,1.085C1305.35,868.815,1302.97,870.286,1301.12,871.061Zm14.97-4.569a1.435,1.435,0,0,1-.38.929l-4.91,4.956,0.46-5.343,5.3-5.344Zm9.6-17.5a9.648,9.648,0,0,1-1.92,3.175l-0.07.078-15.28,15.334-8.91-8.906,15.28-15.412,0.08-.077a9.479,9.479,0,0,1,3.14-1.936,32.235,32.235,0,0,1,9.37-1.626A31.178,31.178,0,0,1,1325.69,848.989Zm-10.82-.929a3.983,3.983,0,0,0,1.15,2.865,4.052,4.052,0,0,0,5.68,0,4.144,4.144,0,0,0,0-5.73,3.863,3.863,0,0,0-2.84-1.085A3.947,3.947,0,0,0,1314.87,848.06Zm2.3-1.781a2.481,2.481,0,0,1,1.77-.775,2.2,2.2,0,0,1,1.76.775,2.684,2.684,0,0,1,.77,1.781,2.244,2.244,0,0,1-.77,1.781,2.582,2.582,0,0,1-3.53,0,2.534,2.534,0,0,1-.77-1.781A2.684,2.684,0,0,1,1317.17,846.279Z" transform="translate(-1291.97 -838)"/>
        </symbol>
        <symbol id="icon-warehouse" viewBox="0 0 35.156 29.91">
          <path d="M109.818,1985.5a5.035,5.035,0,1,1,5.011-5.04A5.028,5.028,0,0,1,109.818,1985.5Zm0-8.57a3.53,3.53,0,1,0,3.515,3.53A3.473,3.473,0,0,0,109.818,1976.93Zm-14.957,8.57a5.035,5.035,0,1,1,5.011-5.04A5.028,5.028,0,0,1,94.861,1985.5Zm0-8.57a3.53,3.53,0,1,0,3.515,3.53A3.52,3.52,0,0,0,94.861,1976.93ZM125,1978.59H114.305a1.664,1.664,0,0,1-1.645-1.66v-17.72h1.5v17.65a0.165,0.165,0,0,0,.149.15H125v1.58Zm-32.906-.53H90.6v-4.73a3.2,3.2,0,0,1,3.216-3.23h0.6v-14.49h7.778l11.966,20.2v2.03h-1.5v-1.66l-11.293-19.07H95.908v14.57H93.739a1.694,1.694,0,0,0-1.72,1.72v4.66h0.075Zm6.88,0.68h6.731v1.5H98.974v-1.5Zm7.479-10.29H96.88v-9.84h3.964Zm-8.077-1.5h5.459l-3.889-6.84H98.3v6.84h0.075Zm26.4,9.01h-9.349v-12.09h4.039v1.87h1.271v-1.87h4.039v12.09Zm-7.853-1.5h6.357v-9.09h-1.047v1.88H117.97v-1.88h-1.047v9.09Z" transform="translate(-89.844 -1955.59)"/>
        </symbol>
        <symbol id="icon-sales" viewBox="0 0 33.469 33.16">
          <path d="M116.188,1779.69a2.16,2.16,0,0,0-2.305,1.99,2.123,2.123,0,0,0,.09.76l-2.73,2.34a2.3,2.3,0,0,0-.745-0.19,2.157,2.157,0,0,0-1.736.69l-3.236-1.05a2.157,2.157,0,0,0-4.292.08,2.1,2.1,0,0,0,.09.76l-2.73,2.35a2.3,2.3,0,0,0-.745-0.2,2.141,2.141,0,1,0,2,2.29,2.112,2.112,0,0,0-.09-0.76l2.73-2.35a2.078,2.078,0,0,0,.746.2,2.133,2.133,0,0,0,1.735-.7l3.236,1.05a2.156,2.156,0,0,0,4.292-.08,2.123,2.123,0,0,0-.09-0.76l2.731-2.34a2.283,2.283,0,0,0,.745.19A2.141,2.141,0,1,0,116.188,1779.69Zm-18.549,10.45a0.782,0.782,0,1,1,.112-1.56,0.78,0.78,0,0,1,.731.83A0.793,0.793,0,0,1,97.639,1790.14Zm5.692-4.89a0.8,0.8,0,0,1-.731-0.84,0.789,0.789,0,0,1,1.573.11A0.792,0.792,0,0,1,103.331,1785.25Zm6.957,2.25a0.78,0.78,0,0,1-.731-0.83A0.789,0.789,0,1,1,110.288,1787.5Zm5.691-4.89a0.782,0.782,0,1,1,.843-0.73A0.788,0.788,0,0,1,115.979,1782.61Zm0.209,6.79a2.16,2.16,0,0,0-2.305,1.98,2.1,2.1,0,0,0,.09.76l-2.73,2.35a2.078,2.078,0,0,0-.745-0.2,2.133,2.133,0,0,0-1.736.7l-3.236-1.05a2.153,2.153,0,1,0-4.2.84l-2.73,2.35a2.074,2.074,0,0,0-.745-0.2,2.141,2.141,0,1,0,2,2.29,2.085,2.085,0,0,0-.09-0.76l2.73-2.35a2.068,2.068,0,0,0,.746.19,2.156,2.156,0,0,0,1.735-.69l3.236,1.05a2.157,2.157,0,0,0,4.292-.08,2.1,2.1,0,0,0-.09-0.76l2.731-2.35a2.067,2.067,0,0,0,.745.2A2.141,2.141,0,1,0,116.188,1789.4Zm-18.549,10.44a0.779,0.779,0,0,1-.731-0.83A0.789,0.789,0,1,1,97.639,1799.84Zm5.692-4.89a0.78,0.78,0,0,1-.731-0.83,0.788,0.788,0,0,1,1.573.11A0.784,0.784,0,0,1,103.331,1794.95Zm6.957,2.26a0.782,0.782,0,1,1,.843-0.73A0.789,0.789,0,0,1,110.288,1797.21Zm5.691-4.9a0.779,0.779,0,0,1-.73-0.83A0.789,0.789,0,1,1,115.979,1792.31Zm7.949,11.18-1.388-1.37a0.785,0.785,0,0,0-1.108,0,0.754,0.754,0,0,0-.229.55,0.775,0.775,0,0,0,.229.55l0.051,0.05H94.236a0.6,0.6,0,0,1-.6-0.6v-27.02l0.05,0.05a0.814,0.814,0,0,0,1.108,0,0.775,0.775,0,0,0,0-1.1l-1.387-1.37a0.776,0.776,0,0,0-1.108,0l-1.388,1.37a0.776,0.776,0,0,0,0,1.1,0.794,0.794,0,0,0,1.108,0l0.05-.05v27.02a2.167,2.167,0,0,0,2.171,2.15h27.247l-0.05.05a0.774,0.774,0,0,0,0,1.1,0.783,0.783,0,0,0,1.109,0l1.386-1.38a0.751,0.751,0,0,0,.23-0.55A0.788,0.788,0,0,0,123.928,1803.49Z" transform="translate(-90.688 -1773.03)"/>
        </symbol>
        <symbol id="icon-purchase" viewBox="0 0 31.782 33.19">
          <path d="M94.521,1845.33a3,3,0,0,0-3,2.99v2.62a3,3,0,0,0,2.986,3l1.945,9.16a3.509,3.509,0,0,0,.673,1.43,4.489,4.489,0,0,0,1.133,1.03,5.663,5.663,0,0,0,1.419.65,5.817,5.817,0,0,0,1.606.23h12.282a5.823,5.823,0,0,0,1.607-.23,5.672,5.672,0,0,0,1.42-.65,4.661,4.661,0,0,0,1.125-1.03,3.55,3.55,0,0,0,.665-1.41l1.946-9.17a3,3,0,0,0,2.993-3.01h0v-2.62a3,3,0,0,0-3-2.99h-3.471l-3.387-7.07a2.9,2.9,0,1,0-4.111-.12,2.929,2.929,0,0,0,2.442.89l3.019,6.3H100.029l3.02-6.3a2.909,2.909,0,1,0-1.67-.77l-3.387,7.07H94.521Zm16.945-8.11a1.065,1.065,0,1,1,1.066-1.07A1.069,1.069,0,0,1,111.466,1837.22Zm-8.09-2.13a1.065,1.065,0,1,1-1.067,1.06A1.066,1.066,0,0,1,103.376,1835.09Zm16.952,12.08a1.153,1.153,0,0,1,1.162,1.15h0v2.62a1.162,1.162,0,0,1-1.162,1.16h-0.736a0.922,0.922,0,0,0-.9.74l-2.1,9.89a1.694,1.694,0,0,1-.328.68,2.8,2.8,0,0,1-.673.61,3.572,3.572,0,0,1-.937.42,3.751,3.751,0,0,1-1.1.16H101.276a3.751,3.751,0,0,1-1.1-.16,3.573,3.573,0,0,1-.938-0.42,2.7,2.7,0,0,1-.64-0.61,1.7,1.7,0,0,1-.327-0.68l-2.1-9.89a0.921,0.921,0,0,0-.9-0.74H94.532a1.151,1.151,0,0,1-1.173-1.14v-2.64a1.153,1.153,0,0,1,1.162-1.15h25.807Zm-9.241,13.56,1.015-8.18a0.93,0.93,0,0,1,1.033-.8,0.92,0.92,0,0,1,.8,1.03l-1.015,8.18a0.922,0.922,0,0,1-.911.8H111.9a0.922,0.922,0,0,1-.828-1c0-.01,0-0.03,0-0.04Zm-10.164-7.95a0.927,0.927,0,0,1,1.839-.23l1.015,8.18a0.921,0.921,0,0,1-.8,1.02h-0.114a0.922,0.922,0,0,1-.912-0.8Zm5.578,8.06v-8.18a0.92,0.92,0,1,1,1.839,0v8.18A0.92,0.92,0,1,1,106.5,1860.84Z" transform="translate(-91.531 -1833.25)"/>
        </symbol>
        <symbol id="icon-accounting" viewBox="0 0 25.938 31.56">
          <path d="M103.025,1894.67c-4.451,0-8.154,3.05-8.154,6.96v17.61c0,3.91,3.7,6.97,8.154,6.97h9.637c4.438,0,8.153-3.06,8.153-6.97v-17.61c0-3.91-3.715-6.96-8.153-6.96h-9.637Zm0,1.47h9.637c3.768,0,6.67,2.51,6.67,5.49v17.61c0,2.99-2.9,5.5-6.67,5.5h-9.637c-3.768,0-6.67-2.51-6.67-5.5v-17.61C96.355,1898.65,99.257,1896.14,103.025,1896.14Zm-1.484,2.93a3.053,3.053,0,0,0-2.442,1.38,5.537,5.537,0,0,0,0,6.03,3.038,3.038,0,0,0,2.442,1.39h12.605a3.059,3.059,0,0,0,2.442-1.39,5.536,5.536,0,0,0,0-6.03,3.075,3.075,0,0,0-2.442-1.38H101.541Zm0,1.46h12.605a1.535,1.535,0,0,1,1.221.77,4.069,4.069,0,0,1,0,4.35,1.508,1.508,0,0,1-1.221.75H101.541a1.491,1.491,0,0,1-1.221-.75,4.069,4.069,0,0,1,0-4.35A1.518,1.518,0,0,1,101.541,1900.53Zm-0.368,9.54a2.565,2.565,0,1,0,2.587,2.57A2.587,2.587,0,0,0,101.173,1910.07Zm6.67,0a2.565,2.565,0,1,0,2.587,2.57A2.587,2.587,0,0,0,107.843,1910.07Zm6.67,0a2.565,2.565,0,1,0,2.587,2.57A2.587,2.587,0,0,0,114.513,1910.07Zm-13.34,1.47a1.1,1.1,0,1,1-1.115,1.1A1.088,1.088,0,0,1,101.173,1911.54Zm6.67,0a1.1,1.1,0,1,1-1.116,1.1A1.088,1.088,0,0,1,107.843,1911.54Zm6.67,0a1.1,1.1,0,1,1-1.116,1.1A1.089,1.089,0,0,1,114.513,1911.54Zm-13.34,5.13a2.565,2.565,0,1,0,2.587,2.57A2.587,2.587,0,0,0,101.173,1916.67Zm6.67,0a2.565,2.565,0,1,0,2.587,2.57A2.587,2.587,0,0,0,107.843,1916.67Zm6.67,0a2.565,2.565,0,1,0,2.587,2.57A2.587,2.587,0,0,0,114.513,1916.67Zm-13.34,1.47a1.1,1.1,0,1,1-1.115,1.1A1.088,1.088,0,0,1,101.173,1918.14Zm6.67,0a1.1,1.1,0,1,1-1.116,1.1A1.088,1.088,0,0,1,107.843,1918.14Zm6.67,0a1.1,1.1,0,1,1-1.116,1.1A1.089,1.089,0,0,1,114.513,1918.14Z" transform="translate(-94.875 -1894.66)"/>
        </symbol>
        <symbol id="icon-rma" viewBox="0 0 36.1 27.9">
          <path d="M29.6,4.9h1.6v6.8h-1.6V4.9z M32.9,13.1v1.8H3v-1.8H32.9z M26.5,4.9h1.6v6.8h-1.6L26.5,4.9  L26.5,4.9z M23.4,4.9h1.6v6.8h-1.6V4.9z M18.7,4.9h3.1v6.8h-3.1V4.9z M15.6,4.9h1.6v6.8h-1.6V4.9z M12.5,4.9h1.6v6.8h-1.6V4.9z   M7.8,4.9h3.1v6.8H7.8V4.9z M6.3,11.8H4.7V4.9h1.6C6.3,4.9,6.3,11.8,6.3,11.8z M0,0h5.5v1.5h-4v4H0V0z M5.5,27.9H0v-5.5h1.6v4h4  L5.5,27.9C5.6,27.9,5.5,27.9,5.5,27.9z M6.3,23.1H4.7v-6.8h1.6C6.3,16.3,6.3,23.1,6.3,23.1z M10.9,23.1H7.8v-6.8h3.1V23.1z   M14.1,23.1h-1.6v-6.8h1.6V23.1z M17.2,23.1h-1.6v-6.8h1.6V23.1z M21.8,23.1h-3.1v-6.8h3.1V23.1z M24.9,23.1h-1.6v-6.8h1.6V23.1z   M28.1,23.1h-1.6v-6.8h1.6L28.1,23.1L28.1,23.1z M29.6,16.3h1.6v6.8h-1.6V16.3z M36.1,27.9h-5.5v-1.5h4v-4h1.5  C36.1,22.4,36.1,27.9,36.1,27.9z M36.1,5.5h-1.6v-4h-4V0h5.6L36.1,5.5L36.1,5.5z M12.5,4.9h1.6v6.8h-1.6V4.9z M7.8,4.9h3.1v6.8H7.8  V4.9z M7.8,16.3h3.1v6.8H7.8V16.3z M4.7,16.3h1.6v6.8H4.7V16.3z M4.7,4.9h1.6v6.8H4.7V4.9z M26.5,4.9h1.6v6.8h-1.6L26.5,4.9  L26.5,4.9z M18.7,4.9h3.1v6.8h-3.1V4.9z M15.6,4.9h1.6v6.8h-1.6V4.9z M23.4,4.9h1.6v6.8h-1.6V4.9z M26.5,16.3h1.6v6.8h-1.6  L26.5,16.3L26.5,16.3z M29.6,16.3h1.6v6.8h-1.6V16.3z M12.5,16.3h1.6v6.8h-1.6V16.3z M23.4,16.3h1.6v6.8h-1.6V16.3z M29.6,4.9h1.6  v6.8h-1.6V4.9z M18.7,16.3h3.1v6.8h-3.1V16.3z M15.6,16.3h1.6v6.8h-1.6V16.3z M3,13.1h29.9v1.8H3L3,13.1L3,13.1z M1.6,1.5h4V0H0v5.5  h1.6L1.6,1.5L1.6,1.5z M30.5,1.5h4v4h1.6V0h-5.5C30.5,0,30.5,1.5,30.5,1.5z M1.6,22.4H0v5.5h5.5v-1.5h-4L1.6,22.4L1.6,22.4z   M34.5,26.4h-4v1.5h5.5v-5.5h-1.6L34.5,26.4L34.5,26.4z"/>
          <polygon points="1.5,5.5 0,5.5 0,0 5.5,0 5.5,1.3 1.5,1.3 "/>
          <polygon points="34.5,5.5 36.1,5.5 36.1,0 30.5,0 30.5,1.3 34.5,1.3 "/>
          <polygon points="34.5,22.4 36.1,22.4 36.1,27.9 30.5,27.9 30.5,26.6 34.5,26.6 "/>
          <polygon points="1.5,22.4 0,22.4 0,27.9 5.5,27.9 5.5,26.6 1.5,26.6 "/>
        </symbol>
        <symbol id="icon-language" viewBox="0 0 24 24">
          <path d="M0 0h24v24H0z" fill="none"/>
          <path d="M11.99 2C6.47 2 2 6.48 2 12s4.47 10 9.99 10C17.52 22 22 17.52 22 12S17.52 2 11.99 2zm6.93 6h-2.95c-.32-1.25-.78-2.45-1.38-3.56 1.84.63 3.37 1.91 4.33 3.56zM12 4.04c.83 1.2 1.48 2.53 1.91 3.96h-3.82c.43-1.43 1.08-2.76 1.91-3.96zM4.26 14C4.1 13.36 4 12.69 4 12s.1-1.36.26-2h3.38c-.08.66-.14 1.32-.14 2 0 .68.06 1.34.14 2H4.26zm.82 2h2.95c.32 1.25.78 2.45 1.38 3.56-1.84-.63-3.37-1.9-4.33-3.56zm2.95-8H5.08c.96-1.66 2.49-2.93 4.33-3.56C8.81 5.55 8.35 6.75 8.03 8zM12 19.96c-.83-1.2-1.48-2.53-1.91-3.96h3.82c-.43 1.43-1.08 2.76-1.91 3.96zM14.34 14H9.66c-.09-.66-.16-1.32-.16-2 0-.68.07-1.35.16-2h4.68c.09.65.16 1.32.16 2 0 .68-.07 1.34-.16 2zm.25 5.56c.6-1.11 1.06-2.31 1.38-3.56h2.95c-.96 1.65-2.49 2.93-4.33 3.56zM16.36 14c.08-.66.14-1.32.14-2 0-.68-.06-1.34-.14-2h3.38c.16.64.26 1.31.26 2s-.1 1.36-.26 2h-3.38z"/>
        </symbol>
        <symbol id="icon-distribution" viewBox="0 -96 480.00375 480">
          <path d="m472 272c-8.898438.230469-17.660156-2.210938-25.160156-7.007812-20.277344-11.988282-45.472656-11.988282-65.75 0-15.460938 9.339843-34.824219 9.339843-50.28125 0-20.273438-11.992188-45.472656-11.992188-65.746094 0-15.453125 9.339843-34.808594 9.339843-50.261719 0-9.855469-6.113282-21.277343-9.238282-32.871093-8.992188-11.589844-.242188-23 2.882812-32.851563 8.992188-7.484375 4.800781-16.238281 7.242187-25.125 7.007812-8.886719.230469-17.636719-2.207031-25.121094-7-9.851562-6.117188-21.265625-9.242188-32.855469-9-11.589843-.242188-23 2.882812-32.847656 8.992188-7.484375 4.800781-16.238281 7.242187-25.128906 7.007812-4.417969 0-8 3.582031-8 8 0 4.421875 3.582031 8 8 8 11.59375.246094 23.007812-2.878906 32.855469-9 7.484375-4.789062 16.234375-7.226562 25.121093-7 8.886719-.230469 17.640626 2.210938 25.128907 7.011719 9.847656 6.109375 21.257812 9.234375 32.847656 8.988281 11.589844.242188 23-2.886719 32.847656-9 7.484375-4.792969 16.238281-7.234375 25.128907-7 8.890624-.226562 17.644531 2.214844 25.132812 7.011719 20.273438 11.988281 45.464844 11.988281 65.738281 0 15.453125-9.34375 34.816407-9.34375 50.269531 0 20.273438 11.988281 45.464844 11.988281 65.738282 0 15.472656-9.34375 34.847656-9.34375 50.320312 0 9.855469 6.109375 21.273438 9.234375 32.871094 8.988281 4.417969 0 8-3.578125 8-8 0-4.417969-3.582031-8-8-8zm0 0"/><path d="m0 248c0 4.421875 3.582031 8 8 8 11.574219.261719 22.976562-2.863281 32.800781-8.988281 7.515625-4.792969 16.289063-7.234375 25.199219-7.011719 8.929688-.207031 17.714844 2.257812 25.230469 7.082031 9.808593 6.0625 21.160156 9.160157 32.691406 8.917969 11.613281.238281 23.046875-2.890625 32.925781-9.007812 7.460938-4.804688 16.199219-7.242188 25.074219-6.992188 8.953125-.21875 17.769531 2.25 25.308594 7.082031 20.253906 11.917969 45.382812 11.882813 65.601562-.089843 7.464844-4.808594 16.210938-7.246094 25.089844-6.992188 8.953125-.21875 17.769531 2.25 25.308594 7.082031 20.25 11.925781 45.378906 11.898438 65.601562-.070312 7.507813-4.785157 16.269531-7.226563 25.167969-7.011719 1.734375 0 3.335938.066406 4.953125.21875 7.167969.601562 14.082031 2.933594 20.152344 6.800781 9.867187 6.109375 21.292969 9.230469 32.894531 8.980469 4.417969 0 8-3.578125 8-8 0-4.417969-3.582031-8-8-8-8.902344.238281-17.667969-2.199219-25.167969-7-4.808593-2.835938-9.9375-5.089844-15.28125-6.710938l47.601563-94.695312c1.246094-2.480469 1.117187-5.429688-.339844-7.792969s-4.035156-3.800781-6.8125-3.800781h-40v-112c0-4.417969-3.582031-8-8-8h-288c-4.417969 0-8 3.582031-8 8v136h-16v-120c0-4.417969-3.582031-8-8-8h-64c-3.949219.003906-7.304688 2.882812-7.902344 6.785156l-14.960937 97.214844h-9.136719c-4.417969 0-8 3.582031-8 8v72c0 1.453125.394531 2.878906 1.144531 4.121094l20.457031 34.097656c-4.421874 1.265625-9.003906 1.867188-13.601562 1.78125-4.417969 0-8 3.582031-8 8zm376-128c-1.730469 0-3.414062.5625-4.800781 1.601562l-29.863281 22.398438h-5.335938v-32h80v8zm-136 24v-32h80v32zm-96-80h80v32h-80zm272 32h-80v-32h80zm-96 0h-80v-32h80zm96-48h-80v-32h80zm-96 0h-80v-32h80zm-176-32h80v32h-80zm0 96h80v32h-80zm-97.136719-80h49.136719v100.691406l-10.34375-10.34375c-1.5-1.503906-3.535156-2.34375-5.65625-2.347656h-46.671875zm-30.863281 104h60.6875l21.65625 21.65625c1.5 1.503906 3.535156 2.34375 5.65625 2.34375h240c1.730469 0 3.414062-.558594 4.800781-1.597656l29.863281-22.402344h80.359376l-44.246094 88c-.273438 0-.503906 0-.800782 0-11.601562-.234375-23.023437 2.886719-32.886718 8.992188-15.503906 9.367187-34.925782 9.339843-50.402344-.070313-20.246094-11.925781-45.378906-11.898437-65.597656.070313-15.503906 9.367187-34.925782 9.339843-50.402344-.070313-9.832031-6.070313-21.214844-9.167969-32.765625-8.921875-11.578125-.261719-22.980469 2.863281-32.800781 8.992188-7.519532 4.789062-16.292969 7.230468-25.199219 7.007812-8.929687.210938-17.710937-2.253906-25.226563-7.078125-9.8125-6.0625-21.164062-9.160156-32.695312-8.921875-1.953125 0-3.769531.082031-5.511719.203125-.585937.039063-1.121093.109375-1.6875.167969-1.113281.109375-2.214843.222656-3.257812.375-.613281.097656-1.191407.199218-1.78125.3125-.914063.160156-1.800781.328125-2.65625.527344-.570313.128906-1.128907.273437-1.671875.414062-.800782.210938-1.601563.441406-2.402344.683594-.488281.148437-.984375.300781-1.457031.460937-.796875.273438-1.542969.5625-2.277344.855469-.386719.152344-.800781.296875-1.160156.457031-.890625.375-1.746094.761719-2.578125 1.160157l-.542969.25c-1 .488281-1.976563.984374-2.910156 1.480468l-20.105469-33.5625zm0 0"/><path d="m72 40h-8c-4.417969 0-8 3.582031-8 8 0 4.421875 3.582031 8 8 8h8c4.417969 0 8-3.578125 8-8 0-4.417969-3.582031-8-8-8zm0 0"/><path d="m72 192h8c4.417969 0 8-3.578125 8-8 0-4.417969-3.582031-8-8-8h-8c-4.417969 0-8 3.582031-8 8 0 4.421875 3.582031 8 8 8zm0 0"/><path d="m112 192h8c4.417969 0 8-3.578125 8-8 0-4.417969-3.582031-8-8-8h-8c-4.417969 0-8 3.582031-8 8 0 4.421875 3.582031 8 8 8zm0 0"/><path d="m152 192h8c4.417969 0 8-3.578125 8-8 0-4.417969-3.582031-8-8-8h-8c-4.417969 0-8 3.582031-8 8 0 4.421875 3.582031 8 8 8zm0 0"/><path d="m192 192h8c4.417969 0 8-3.578125 8-8 0-4.417969-3.582031-8-8-8h-8c-4.417969 0-8 3.582031-8 8 0 4.421875 3.582031 8 8 8zm0 0"/><path d="m232 192h8c4.417969 0 8-3.578125 8-8 0-4.417969-3.582031-8-8-8h-8c-4.417969 0-8 3.582031-8 8 0 4.421875 3.582031 8 8 8zm0 0"/><path d="m272 192h8c4.417969 0 8-3.578125 8-8 0-4.417969-3.582031-8-8-8h-8c-4.417969 0-8 3.582031-8 8 0 4.421875 3.582031 8 8 8zm0 0"/><path d="m312 192h8c4.417969 0 8-3.578125 8-8 0-4.417969-3.582031-8-8-8h-8c-4.417969 0-8 3.582031-8 8 0 4.421875 3.582031 8 8 8zm0 0"/><path d="m352 192h8c4.417969 0 8-3.578125 8-8 0-4.417969-3.582031-8-8-8h-8c-4.417969 0-8 3.582031-8 8 0 4.421875 3.582031 8 8 8zm0 0"/><path d="m392 192h8c4.417969 0 8-3.578125 8-8 0-4.417969-3.582031-8-8-8h-8c-4.417969 0-8 3.582031-8 8 0 4.421875 3.582031 8 8 8zm0 0"/>
        </symbol>
        <symbol id="icon-fb" viewBox="0 0 512 512">
              <path d="M456.354,334.396c-0.495-0.828-1.016-1.621-1.536-2.321c-5.171-7.228-12.86-12.006-21.632-13.449
                c-8.73-1.442-17.579,0.614-24.781,5.786l-95.403,68.122h-99.669c-4.702,0-8.533-3.823-8.533-8.533s3.831-8.533,8.533-8.533H268.8
                c16.469,0,29.867-13.397,29.867-29.867c0-0.094-0.009-0.879-0.017-0.964c-0.529-16.461-14.413-29.295-30.532-28.902h-111.01
                c-9.839,0.085-19.422,3.61-26.974,9.907l-41.728,34.731c-1.946,1.63-3.072,4.028-3.072,6.562v102.4
                c0,4.719,3.823,8.533,8.533,8.533h211.721c13.858-0.017,27.358-4.898,38.025-13.73l103.45-85.478
                C461.116,368.648,465.195,349.21,456.354,334.396z M436.685,365.133L332.74,450.987c-7.629,6.315-17.28,9.796-27.162,9.813H102.4
                v-89.865l38.664-32.188c4.54-3.78,10.283-5.897,16.12-5.948l111.206-0.008c7.074-0.009,12.979,5.342,13.21,12.809
                c0,7.057-5.743,12.8-12.8,12.8h-55.467c-14.114,0-25.6,11.486-25.6,25.6s11.486,25.6,25.6,25.6h102.4
                c1.775,0,3.507-0.555,4.975-1.587l97.638-69.726c3.516-2.526,7.791-3.507,12.075-2.825c4.275,0.708,8.013,3.029,10.581,6.613
                c0.256,0.35,0.486,0.708,0.708,1.075C446.029,350.379,444.023,359.876,436.685,365.133z"/>
              <path d="M93.611,349.867H0v17.067h85.077v128H0V512h93.611c4.71,0,8.533-3.814,8.533-8.533V358.4
                C102.144,353.681,98.321,349.867,93.611,349.867z"/>
              <path d="M42.667,426.667c-14.114,0-25.6,11.486-25.6,25.6c0,14.114,11.486,25.6,25.6,25.6s25.6-11.486,25.6-25.6
                C68.267,438.153,56.781,426.667,42.667,426.667z M42.667,460.8c-4.702,0-8.533-3.823-8.533-8.533c0-4.71,3.831-8.533,8.533-8.533
                c4.702,0,8.533,3.823,8.533,8.533C51.2,456.977,47.369,460.8,42.667,460.8z"/>
              <path d="M503.467,264.533H8.533c-4.71,0-8.533,3.814-8.533,8.533c0,32.93,26.795,59.733,59.733,59.733h392.533
                c32.93,0,59.733-26.803,59.733-59.733C512,268.348,508.186,264.533,503.467,264.533z M452.267,315.733H59.733
                c-20.608,0-37.845-14.686-41.805-34.133h476.143C490.112,301.047,472.875,315.733,452.267,315.733z"/>
              <path d="M256,42.667c-122.334,0-221.867,99.533-221.867,221.867v8.533c0,4.719,3.823,8.533,8.533,8.533h426.667
                c4.719,0,8.533-3.814,8.533-8.533v-8.533C477.867,142.199,378.342,42.667,256,42.667z M51.2,264.533
                c0-112.922,91.878-204.8,204.8-204.8s204.8,91.878,204.8,204.8H51.2z"/>
              <path d="M115.644,140.006c-5.965,6.707-11.494,13.884-16.435,21.342l14.225,9.429c4.506-6.793,9.54-13.338,14.967-19.439
                L115.644,140.006z"/>
              <path d="M256,76.8c-47.923,0.026-93.551,18.133-128.469,50.961l11.691,12.433c31.744-29.85,73.224-46.302,116.787-46.327L256,76.8
                z"/>
              <rect x="230.4" width="51.2" height="17.067"/>
              <rect x="247.467" y="8.533" width="17.067" height="42.667"/>

        </symbol>
        <symbol id="icon-retail" viewBox="0 -46 512 511">
          <path d="m229.914062 273.472656 15.136719-56.570312h5.382813v-15h-121.585938l-3.941406-14.742188h-36.054688v15h24.535157l24.175781 90.480469h2.699219c-.582031 1.929687-.898438 3.972656-.898438 6.09375 0 11.628906 9.464844 21.089844 21.09375 21.089844 11.632813 0 21.09375-9.460938 21.09375-21.089844 0-2.117187-.3125-4.164063-.898437-6.09375h14.605468c-.585937 1.929687-.898437 3.972656-.898437 6.09375 0 11.628906 9.460937 21.089844 21.09375 21.089844 11.628906 0 21.09375-9.460938 21.09375-21.089844 0-11.632813-9.464844-21.09375-21.09375-21.09375h-66.371094l-1.113281-4.167969zm-57.035156-15v-13.285156h16.640625v13.285156zm31.640625 0v-13.285156h17.4375l-3.554687 13.285156zm25.003907-41.570312-3.554688 13.285156h-21.449219v-13.285156zm-40.003907 0v13.285156h-16.640625v-13.285156zm-31.640625 0v13.285156h-21.453125l-3.554687-13.285156zm8.671875 81.828125c0 3.359375-2.734375 6.09375-6.09375 6.09375s-6.09375-2.730469-6.09375-6.09375c0-3.359375 2.734375-6.089844 6.09375-6.089844s6.09375 2.730469 6.09375 6.089844zm54.992188 0c0 3.359375-2.734375 6.09375-6.09375 6.09375s-6.09375-2.730469-6.09375-6.09375c0-3.359375 2.734375-6.089844 6.09375-6.089844s6.09375 2.730469 6.09375 6.089844zm-77.546875-40.257813-3.554688-13.285156h17.4375v13.285156zm0 0"/><path d="m404.503906 197.910156-16.84375-28.160156h-12.464844l-17.160156 28.160156h-11.878906v45.386719h70.816406v-45.386719zm-23.136718-9.460937 5.660156 9.457031h-11.425782zm20.609374 39.847656h-40.816406v-15.390625h40.816406zm0 0"/><path d="m482.742188.5h-453.484376l-29.257812 31.445312v97.433594l29.1875 29.1875h39.457031l21.6875-21.6875 21.6875 21.6875h39.457031l21.6875-21.6875 21.6875 21.6875h39.457032l21.691406-21.6875 21.6875 21.6875h39.457031l21.6875-21.6875 21.6875 21.6875h39.457031l21.6875-21.6875 21.6875 21.6875h39.457032l29.191406-29.1875v-97.433594zm-420.308594 143.066406h-27.03125l-20.402344-20.402344v-56.648437h67.832031v56.648437zm82.832031 0h-27.03125l-20.398437-20.402344v-56.648437h67.832031v56.648437zm82.832031 0h-27.027344l-20.402343-20.402344v-56.648437h67.832031v56.648437zm82.835938 0h-27.03125l-20.402344-20.402344v-56.648437h67.832031v56.648437zm82.832031 0h-27.03125l-20.398437-20.402344v-56.648437h67.832031v56.648437zm103.234375-20.402344-20.402344 20.402344h-27.027344l-20.402343-20.402344v-56.648437h67.832031zm-482-71.648437v-13.671875l20.789062-22.34375h440.421876l20.789062 22.34375v13.671875zm0 0"/><path d="m486.480469 165.074219h15v192.082031h-15zm0 0"/><path d="m10.996094 165.554688h15v191.601562h-15zm0 0"/><path d="m76.464844 171.066406h-15l.046875 176.578125h216.316406l-.050781-178.8125-15 .003907.046875 163.808593h-186.316407zm0 0"/><path d="m450.0625 171.066406h-15v198.585938h-106.992188v-198.585938h-15v198.585938h-313.070312v50.4375h512v-50.4375h-61.9375zm46.9375 213.589844v20.433594h-482v-20.433594zm0 0"/><path d="m425.0625 355.738281h-15v-50.484375h15zm0-60.484375h-15v-15h15zm0-25h-15v-15h15zm0 0"/><path d="m250.433594 185.601562h-57.933594v-15h57.933594zm-67.933594 0h-15v-15h15zm-25 0h-15v-15h15zm0 0"/><path d="m477 41.515625h-212.417969v-15h212.417969zm-222.417969 0h-15v-15h15zm-25 0h-15v-15h15zm0 0"/>
        </symbol>
        <symbol id="icon-services" viewBox="0 0 512 512">
            <path d="M328.844,368.733c-5.383-3.235-10.908-6.487-16.433-9.675c1.299-11.07,1.302-22.268,0.006-33.316
              c5.546-3.2,11.068-6.45,16.425-9.671c9.02-5.42,12.78-16.856,8.744-26.603c0,0,0,0-0.001-0.001l-11.771-28.418
              c-4.037-9.744-14.777-15.175-24.993-12.63c-6.071,1.511-12.274,3.118-18.455,4.776c-6.901-8.732-14.82-16.649-23.563-23.554
              c1.658-6.182,3.266-12.388,4.778-18.461c2.545-10.211-2.885-20.955-12.629-24.992l-28.418-11.771
              c-9.744-4.038-21.183-0.281-26.605,8.741c-3.229,5.374-6.482,10.899-9.674,16.433c-11.067-1.299-22.263-1.302-33.316-0.007
              c-3.202-5.551-6.453-11.074-9.67-16.426c-5.424-9.02-16.86-12.778-26.605-8.741l-28.418,11.771
              c-9.742,4.036-15.174,14.781-12.629,24.992c1.515,6.085,3.121,12.289,4.776,18.455c-8.731,6.899-16.649,14.82-23.553,23.563
              c-6.196-1.663-12.402-3.269-18.463-4.779c-10.214-2.547-20.956,2.888-24.993,12.631L1.615,289.467
              c-4.035,9.745-0.276,21.182,8.742,26.602c5.375,3.23,10.9,6.482,16.433,9.675c-1.298,11.066-1.301,22.262-0.006,33.316
              c-5.538,3.195-11.06,6.446-16.429,9.672c-9.018,5.421-12.777,16.857-8.741,26.603l11.772,28.418
              c4.036,9.743,14.775,15.176,24.993,12.63c6.064-1.51,12.268-3.116,18.453-4.776c6.901,8.731,14.82,16.647,23.563,23.553
              c-1.66,6.189-3.267,12.395-4.778,18.461c-2.545,10.211,2.885,20.956,12.629,24.992l28.419,11.772
              c2.64,1.093,5.403,1.615,8.137,1.615c7.362,0,14.514-3.779,18.471-10.355c3.205-5.333,6.456-10.856,9.674-16.432
              c11.065,1.297,22.264,1.299,33.316,0.006c3.179,5.512,6.43,11.034,9.67,16.427c5.422,9.02,16.858,12.777,26.605,8.741
              l28.418-11.771c9.742-4.036,15.174-14.781,12.629-24.992c-1.503-6.033-3.109-12.237-4.776-18.455
              c8.729-6.899,16.648-14.819,23.554-23.562c6.178,1.657,12.384,3.263,18.46,4.777c10.211,2.547,20.956-2.884,24.993-12.63
              l11.771-28.419C341.621,385.59,337.862,374.153,328.844,368.733z M305.116,413.834c-5.837-1.462-11.787-3.008-17.703-4.602
              c-8.376-2.253-17.215,0.692-22.519,7.507c-6.096,7.83-13.151,14.886-20.968,20.973c-6.807,5.302-9.748,14.138-7.493,22.509
              c1.603,5.954,3.148,11.9,4.601,17.696l-26.122,10.819c-3.107-5.184-6.218-10.481-9.259-15.765
              c-4.327-7.514-12.655-11.678-21.216-10.618c-9.831,1.221-19.81,1.22-29.654-0.005c-8.585-1.066-16.906,3.098-21.232,10.614
              c-3.078,5.344-6.19,10.644-9.263,15.773l-26.122-10.82c1.461-5.827,3.007-11.776,4.603-17.701
              c2.255-8.375-0.692-17.215-7.507-22.52c-7.83-6.095-14.885-13.149-20.973-20.965c-5.3-6.809-14.136-9.749-22.51-7.495
              c-5.923,1.595-11.87,3.141-17.695,4.601l-10.82-26.121c5.16-3.094,10.459-6.205,15.765-9.26
              c7.515-4.327,11.683-12.653,10.619-21.215c-1.223-9.832-1.22-19.81,0.003-29.655c1.068-8.57-3.097-16.905-10.616-21.233
              c-5.304-3.054-10.604-6.166-15.772-9.265l10.82-26.121c5.82,1.459,11.768,3.005,17.702,4.602
              c8.372,2.256,17.212-0.692,22.52-7.507c6.095-7.83,13.15-14.886,20.965-20.972c6.808-5.301,9.749-14.138,7.494-22.512
              c-1.59-5.904-3.136-11.85-4.601-17.694l26.122-10.819c3.084,5.146,6.196,10.444,9.259,15.765
              c4.328,7.515,12.663,11.689,21.216,10.618c9.827-1.223,19.804-1.223,29.657,0.005c8.575,1.068,16.905-3.102,21.231-10.617
              c3.053-5.304,6.166-10.604,9.262-15.771l26.122,10.819c-1.462,5.833-3.008,11.782-4.603,17.703
              c-2.255,8.374,0.692,17.214,7.507,22.519c7.829,6.095,14.885,13.149,20.973,20.965c5.3,6.807,14.133,9.748,22.511,7.494
              c5.919-1.594,11.865-3.14,17.694-4.601l10.819,26.121c-5.153,3.089-10.451,6.2-15.765,9.26
              c-7.515,4.327-11.684,12.654-10.619,21.216c1.223,9.827,1.221,19.806-0.005,29.657c-1.066,8.571,3.101,16.904,10.617,21.231
              c5.296,3.049,10.596,6.161,15.772,9.263L305.116,413.834z"/>
            <path d="M241.762,312.511c0,0,0,0-0.001-0.001c-16.48-39.789-62.256-58.752-102.051-42.271
              C99.922,286.721,80.958,332.501,97.44,372.29c7.983,19.276,22.997,34.287,42.271,42.272c9.637,3.991,19.763,5.987,29.889,5.987
              s20.252-1.996,29.891-5.987C239.279,398.08,258.242,352.301,241.762,312.511z M190.72,393.388c-13.618,5.641-28.617,5.64-42.239,0
              c-13.618-5.641-24.225-16.249-29.867-29.868c-11.647-28.114,1.753-60.462,29.868-72.107c6.885-2.852,14.021-4.202,21.047-4.202
              c21.667,0,42.265,12.84,51.06,34.07C232.234,349.395,218.834,381.742,190.72,393.388z"/>
            <path d="M496.553,100.936c-3.956-0.592-8.019-1.167-12.111-1.713c-2.062-6.857-4.816-13.505-8.214-19.819
              c2.504-3.275,4.972-6.556,7.357-9.779c5.295-7.161,4.529-17.317-1.78-23.623l-15.808-15.806
              c-6.309-6.31-16.465-7.075-23.624-1.778c-3.234,2.393-6.514,4.86-9.779,7.355c-6.313-3.398-12.96-6.152-19.819-8.215
              c-0.547-4.092-1.12-8.155-1.712-12.11C409.746,6.642,402.024,0,393.102,0h-22.356c-8.922,0-16.644,6.642-17.961,15.447
              c-0.591,3.953-1.165,8.017-1.712,12.11c-6.859,2.063-13.507,4.817-19.819,8.215c-3.263-2.496-6.545-4.964-9.778-7.355
              c-7.161-5.297-17.317-4.532-23.624,1.777l-15.806,15.805c-6.31,6.308-7.077,16.465-1.78,23.627
              c2.383,3.222,4.851,6.504,7.354,9.778c-3.396,6.313-6.151,12.96-8.214,19.819c-4.091,0.547-8.155,1.121-12.11,1.713
              c-8.807,1.318-15.449,9.039-15.449,17.962v22.355c0,8.922,6.64,16.644,15.447,17.962c3.956,0.592,8.019,1.167,12.111,1.713
              c2.063,6.858,4.817,13.505,8.214,19.819c-2.501,3.272-4.969,6.552-7.357,9.779c-5.294,7.159-4.529,17.317,1.78,23.622
              l15.808,15.808c6.308,6.31,16.464,7.074,23.624,1.778c3.234-2.391,6.514-4.86,9.778-7.354c6.315,3.398,12.963,6.152,19.82,8.214
              c0.545,4.091,1.12,8.155,1.712,12.111c1.318,8.806,9.04,15.448,17.962,15.448h22.356c8.922,0,16.644-6.64,17.961-15.449
              c0.591-3.956,1.165-8.019,1.712-12.111c6.858-2.061,13.505-4.817,19.819-8.215c3.263,2.496,6.545,4.964,9.778,7.356
              c7.159,5.297,17.317,4.532,23.624-1.777l15.808-15.806c6.309-6.308,7.075-16.465,1.778-23.626
              c-2.386-3.226-4.854-6.508-7.354-9.777c3.396-6.313,6.151-12.959,8.214-19.819c4.091-0.547,8.155-1.121,12.11-1.713
              c8.807-1.318,15.449-9.039,15.449-17.962v-22.355C512,109.976,505.359,102.254,496.553,100.936z M490.228,138.142
              c-3.592,0.521-7.257,1.027-10.934,1.506c-7.273,0.949-13.227,6.111-15.165,13.149c-1.857,6.739-4.552,13.242-8.009,19.328
              c-3.611,6.353-3.054,14.215,1.419,20.032c2.255,2.932,4.492,5.883,6.669,8.799l-11.404,11.405
              c-2.925-2.183-5.876-4.419-8.802-6.669c-5.814-4.475-13.678-5.028-20.032-1.421c-6.087,3.458-12.59,6.153-19.325,8.01
              c-7.042,1.94-12.204,7.894-13.15,15.165c-0.479,3.677-0.984,7.343-1.506,10.935h-16.13c-0.521-3.592-1.026-7.257-1.506-10.931
              c-0.949-7.274-6.11-13.228-13.15-15.168c-6.737-1.856-13.238-4.551-19.327-8.009c-6.354-3.61-14.218-3.055-20.031,1.419
              c-2.927,2.251-5.876,4.486-8.803,6.669l-11.404-11.405c2.177-2.919,4.413-5.868,6.671-8.803c4.47-5.815,5.027-13.677,1.417-20.03
              c-3.457-6.086-6.152-12.59-8.009-19.327c-1.939-7.04-7.892-12.201-15.165-13.15c-3.677-0.48-7.343-0.984-10.935-1.507v-16.128
              c3.592-0.521,7.257-1.027,10.934-1.506c7.273-0.949,13.227-6.111,15.165-13.149c1.857-6.738,4.551-13.241,8.009-19.328
              c3.611-6.353,3.054-14.216-1.417-20.031c-2.259-2.936-4.495-5.886-6.67-8.8l11.404-11.405c2.925,2.183,5.875,4.419,8.8,6.668
              c5.812,4.475,13.675,5.033,20.034,1.422c6.085-3.457,12.589-6.152,19.325-8.01c7.042-1.94,12.204-7.894,13.15-15.165
              c0.48-3.677,0.986-7.342,1.507-10.934h16.13c0.521,3.591,1.026,7.256,1.505,10.931c0.949,7.274,6.111,13.228,13.15,15.167
              c6.738,1.857,13.242,4.553,19.328,8.01c6.355,3.611,14.218,3.05,20.03-1.42c2.927-2.25,5.876-4.486,8.803-6.669l11.404,11.405
              c-2.175,2.915-4.411,5.866-6.67,8.803c-4.471,5.814-5.027,13.676-1.419,20.029c3.457,6.088,6.152,12.592,8.009,19.328
              c1.939,7.04,7.892,12.201,15.165,13.15c3.677,0.48,7.343,0.985,10.935,1.507V138.142z"/>
            <path d="M381.924,83.675c-25.585,0-46.401,20.815-46.401,46.401c0,25.587,20.815,46.402,46.401,46.402
              s46.401-20.815,46.401-46.402C428.325,104.49,407.51,83.675,381.924,83.675z M381.924,155.851
              c-14.211,0-25.775-11.563-25.775-25.776c0-14.213,11.563-25.775,25.775-25.775c14.212,0,25.774,11.563,25.775,25.775
              C407.699,144.288,396.136,155.851,381.924,155.851z"/>
        </symbol>
        <symbol id="icon-business" viewBox="0 0 24 24">
        <path xmlns="http://www.w3.org/2000/svg" d="M12 7V3H2v18h20V7H12zM6 19H4v-2h2v2zm0-4H4v-2h2v2zm0-4H4V9h2v2zm0-4H4V5h2v2zm4 12H8v-2h2v2zm0-4H8v-2h2v2zm0-4H8V9h2v2zm0-4H8V5h2v2zm10 12h-8v-2h2v-2h-2v-2h2v-2h-2V9h8v10zm-2-8h-2v2h2v-2zm0 4h-2v2h2v-2z"/>
        </symbol>
        <symbol id="icon-benefits" viewBox="0 0 24 24">
          <path fill="none" d="M0 0h24v24H0V0z"/><path d="M20 7h-4V5l-2-2h-4L8 5v2H4c-1.1 0-2 .9-2 2v5c0 .75.4 1.38 1 1.73V19c0 1.11.89 2 2 2h14c1.11 0 2-.89 2-2v-3.28c.59-.35 1-.99 1-1.72V9c0-1.1-.9-2-2-2zM10 5h4v2h-4V5zM4 9h16v5h-5v-3H9v3H4V9zm9 6h-2v-2h2v2zm6 4H5v-3h4v1h6v-1h4v3z"/>
        </symbol>
        <symbol id="icon-check" viewBox="0 0 24 24">
            <path d="M9 16.17L4.83 12l-1.42 1.41L9 19 21 7l-1.41-1.41z"/>
        </symbol>
        <symbol id="icon-cancel" viewBox="0 0 180.607 180.607">
          <path d="M180.607,10.607l-79.696,79.697l79.696,79.697L170,180.607l-79.696-79.696l-79.696,79.696L0,170.001l79.696-79.697L0,10.607  L10.607,0.001l79.696,79.696L170,0.001L180.607,10.607z"/>
        </symbol>
        <symbol id="icon-address" viewBox="0 0 24 24"><path d="M12 7V3H2v18h20V7H12zM6 19H4v-2h2v2zm0-4H4v-2h2v2zm0-4H4V9h2v2zm0-4H4V5h2v2zm4 12H8v-2h2v2zm0-4H8v-2h2v2zm0-4H8V9h2v2zm0-4H8V5h2v2zm10 12h-8v-2h2v-2h-2v-2h2v-2h-2V9h8v10zm-2-8h-2v2h2v-2zm0 4h-2v2h2v-2z"/></symbol>
        <symbol id="icon-phone" viewBox="0 0 24 24"><path d="M20.01 15.38c-1.23 0-2.42-.2-3.53-.56-.35-.12-.74-.03-1.01.24l-1.57 1.97c-2.83-1.35-5.48-3.9-6.89-6.83l1.95-1.66c.27-.28.35-.67.24-1.02-.37-1.11-.56-2.3-.56-3.53 0-.54-.45-.99-.99-.99H4.19C3.65 3 3 3.24 3 3.99 3 13.28 10.73 21 20.01 21c.71 0 .99-.63.99-1.18v-3.45c0-.54-.45-.99-.99-.99z"/></symbol>
        <symbol id="icon-mobile" viewBox="0 0 24 24"><path d="M15.5 1h-8C6.12 1 5 2.12 5 3.5v17C5 21.88 6.12 23 7.5 23h8c1.38 0 2.5-1.12 2.5-2.5v-17C18 2.12 16.88 1 15.5 1zm-4 21c-.83 0-1.5-.67-1.5-1.5s.67-1.5 1.5-1.5 1.5.67 1.5 1.5-.67 1.5-1.5 1.5zm4.5-4H7V4h9v14z"/></symbol>
        <symbol id="icon-email" viewBox="0 0 24 24"><path d="M20 4H4c-1.1 0-1.99.9-1.99 2L2 18c0 1.1.9 2 2 2h16c1.1 0 2-.9 2-2V6c0-1.1-.9-2-2-2zm0 4l-8 5-8-5V6l8 5 8-5v2z"/></symbol>
    </defs>
</svg>