<svg id="Layer_1" data-name="Layer 1" xmlns="http://www.w3.org/2000/svg" viewBox="0 0 480 336"><defs><style>.cls-1{fill:#00b39d;}.cls-2{fill:#00ccb3;}.cls-3{fill:#009986;}.cls-4{fill:#ffc477;}.cls-5{fill:#efc75e;}.cls-6{fill:#c93;}</style></defs><title>buy</title><path class="cls-1" d="M870-152H518v-72a16,16,0,0,1,16-16H854a16.06,16.06,0,0,1,16,16Z" transform="translate(-398 328)"/><path class="cls-2" d="M854,0H534a16,16,0,0,1-16-16V-192a15.74,15.74,0,0,1,3.92-10.48A16.12,16.12,0,0,1,534-208H854a16.06,16.06,0,0,1,16,16V-16A16.05,16.05,0,0,1,854,0Z" transform="translate(-398 328)"/><path class="cls-1" d="M572.8-192l-6-3-6.72,3-5.6,2.48A63.1,63.1,0,0,1,528.56-184h-5.2c-1.76,0-3.6-.08-5.36-.24v-19.44a30,30,0,0,0,3.92,1.2A60.92,60.92,0,0,0,539.36-200h5.2a63.1,63.1,0,0,0,25.92-5.52l5.6-2.48,6.72-3,6,3,73.12,36a24.06,24.06,0,0,0,12,3.2,22.5,22.5,0,0,0,7-1,20.08,20.08,0,0,1-2.16,5,24,24,0,0,1-32.8,8.8Z" transform="translate(-398 328)"/><path class="cls-3" d="M734-240H633.2l31.92,16H734Z" transform="translate(-398 328)"/><path class="cls-4" d="M661.92-172a24,24,0,0,0,32.74-8.71A24,24,0,0,0,692.4-208a22.31,22.31,0,0,0-6.48-5.6L633.2-240H733.92v-3.12A31.94,31.94,0,0,0,720-269.52l-53.6-36.56A80.28,80.28,0,0,0,621.28-320H406v96h80l15,11.28a65.26,65.26,0,0,0,17,9,30,30,0,0,0,3.92,1.2A60.92,60.92,0,0,0,539.36-200h5.2a63.1,63.1,0,0,0,25.92-5.52l5.6-2.48,6.72-3,6,3Z" transform="translate(-398 328)"/><path d="M878-16V-224a24,24,0,0,0-24-24H741.62a40,40,0,0,0-17.15-28.14l-53.6-36.55A87.76,87.76,0,0,0,621.3-328H406a8,8,0,0,0-8,8v96a8,8,0,0,0,8,8h77.33l12.91,9.65a71.56,71.56,0,0,0,14.56,8.42A24.21,24.21,0,0,0,510-192V-16A24,24,0,0,0,534,8H854A24,24,0,0,0,878-16ZM539.37-208a56.28,56.28,0,0,1-33.55-11.2l-15-11.2A8,8,0,0,0,486-232H414v-80H621.3a71.8,71.8,0,0,1,40.59,12.53l53.56,36.54A24,24,0,0,1,725.32-248H635.06l-33.48-16.8-7.2,14.31,87.51,43.78a16,16,0,0,1,5.9,21.84,16,16,0,0,1-13.9,8,16.74,16.74,0,0,1-8.46-2.4l-79.12-39a8.38,8.38,0,0,0-3.3-.8h-.28a7.91,7.91,0,0,0-3.87,1l-11.61,5.16a55.88,55.88,0,0,1-22.72,4.8ZM534-8a8,8,0,0,1-8-8V-192a7.85,7.85,0,0,1,.22-1.27A71.71,71.71,0,0,0,539.37-192h5.16a71.86,71.86,0,0,0,29.2-6.17l8.89-4,75.32,37.07a32.2,32.2,0,0,0,16,4.26,31.89,31.89,0,0,0,31.94-31.84A32.24,32.24,0,0,0,705-200H854a8,8,0,0,1,8,8V-16a8,8,0,0,1-8,8Z" transform="translate(-398 328)"/><path class="cls-5" d="M697-167.86A72.93,72.93,0,0,1,770-94.93,72.93,72.93,0,0,1,697-22a72.93,72.93,0,0,1-72.93-72.93A72.93,72.93,0,0,1,697-167.86Z" transform="translate(-398 328)"/><path class="cls-6" d="M697-154.18a59.26,59.26,0,0,0-59.26,59.25A59.26,59.26,0,0,0,697-35.67a59.26,59.26,0,0,0,59.25-59.26A59.25,59.25,0,0,0,697-154.18Zm0,109.39A50.14,50.14,0,0,1,646.9-94.93,50.14,50.14,0,0,1,697-145.07a50.14,50.14,0,0,1,50.14,50.14A50.14,50.14,0,0,1,697-44.79Zm6.06-53.94c-2.73-1.15-12.74-2.73-12.74-7.11,0-3.23,3.74-4.17,6-4.17a8.75,8.75,0,0,1,5.79,1.94,4.87,4.87,0,0,1,1.43,2.16c.34.93.55,1.93,1.84,1.93h6.68c1.57,0,2-.28,2-2,0-7.39-5.8-11.55-12.41-13v-5.74c0-1.29-.41-2.09-2-2.09h-5.32c-1.57,0-2,.79-2,2.09v5.52c-7.09,1.36-13,5.82-13,13.86,0,9.11,6.34,12,13.21,14.28,5.8,1.94,11.86,2,11.86,6s-3,4.88-6.67,4.88c-2.53,0-5.32-.65-6.69-2.37a5,5,0,0,1-1.28-2.94c-.14-1.8-.89-2-2.46-2h-6.61c-1.57,0-2,.36-2,2,0,8.18,6.55,13.14,13.63,14.71v5.61c0,1.29.41,2.08,2,2.08h5.32c1.56,0,2-.79,2-2.08V-70.6c8.05-1.22,13.56-6.1,13.56-14.71C715.23-95.07,708-97.16,703.1-98.73Z" transform="translate(-398 328)"/></svg>