<?xml version="1.0" encoding="utf-8"?>
<!-- Generator: Adobe Illustrator 22.1.0, SVG Export Plug-In . SVG Version: 6.00 Build 0)  -->
<svg version="1.1" id="Layer_1" xmlns="http://www.w3.org/2000/svg" xmlns:xlink="http://www.w3.org/1999/xlink" x="0px" y="0px"
	 viewBox="0 0 1366 417" style="enable-background:new 0 0 1366 417;" xml:space="preserve">
<style type="text/css">
	.st0{fill:#B2B4B7;}
	.st1{fill:#EC1C24;}
	.st2{fill:#EB1F27;}
</style>
<g>
	<g>
		<path class="st0" d="M18.8,318.8H1.1V310c16.1,0,29.7,0,45.9,0v8.8H29.3v42.5H18.8V318.8z"/>
		<path class="st0" d="M108.8,361.3H96.3L80,344.2H69.9v17.1H59.4V310c8.8,0,17.7,0.1,26.5,0.1c13.1,0.1,20.1,8.1,20.1,17
			c0,7-3.5,14.1-14.1,16.1l16.9,17.5V361.3z M69.9,319.1v16.4h16c6.7,0,9.6-4.1,9.6-8.2s-2.9-8.2-9.6-8.2H69.9z"/>
		<path class="st0" d="M158.6,351.6h-29.2l-4.8,9.7h-11.4l25-51.2h11.5l25,51.2h-11.5L158.6,351.6z M144.1,320.8l-10.4,21.8h20.7
			L144.1,320.8z"/>
		<path class="st0" d="M236.3,335.2c0.2,13-8.4,26.1-27.9,26.1c-6.8,0-15.1,0-21.9,0V310c6.9,0,15.1,0,21.9,0
			C227.5,310,236,322.6,236.3,335.2z M196.9,352h11.5c12.7,0,17.7-8.5,17.4-16.8c-0.2-8-5.3-16-17.4-16h-11.5V352z"/>
		<path class="st0" d="M250.1,361.3V310h10.4v51.2H250.1z"/>
		<path class="st0" d="M313,310h10.5v51.3H317v0.1l-29.3-34.6v34.6h-10.5V310h8.5l27.3,31.8V310z"/>
		<path class="st0" d="M380.6,322.6c-3.7-3.3-9.3-5.1-14.2-5.1c-11.9,0-19.2,8.3-19.2,18.9c0,8.4,5.3,17.1,19.2,17.1
			c4.4,0,8.2-0.9,12.6-4.1v-9.1h-14.3v-8.6h23.9v21.6c-5.5,5.8-12.4,9.2-22.2,9.2c-20.9,0-29.5-12.7-29.5-26.1
			c0-14.4,9.8-27.7,29.5-27.7c7.5,0,15,2.6,20.7,7.8L380.6,322.6z"/>
		<path class="st0" d="M474.4,354.8c-5.7,5.2-13.1,7.6-21.2,7.6c-20.7,0-29.5-13.1-29.5-26.4c-0.1-13.4,9.4-27,29.5-27
			c7.6,0,14.7,2.6,20.5,7.8l-7,6.2c-3.7-3.3-8.6-4.8-13.5-4.8c-13.5,0-19.3,9.2-19.2,17.8c0.1,8.5,5.4,17.4,19.2,17.4
			c4.9,0,10.4-1.8,14-5.2L474.4,354.8z"/>
		<path class="st0" d="M541,336c-0.2,13.2-9,26.5-28.6,26.5c-19.6,0-28.7-13-28.7-26.4c0-13.5,9.4-27,28.7-27
			C531.6,309,541.2,322.6,541,336z M494.1,336.2c0.2,8.4,5.2,17.4,18.3,17.4c13.1,0,18.1-9.1,18.2-17.5c0.2-8.6-5.1-18.3-18.2-18.3
			C499.3,317.8,493.9,327.5,494.1,336.2z"/>
		<path class="st0" d="M603.3,324.2l-18.2,22.3h-2.1l-17.8-22.3v37.3h-10.5v-51.2h12.1l17.4,22l17.4-22h12v51.2h-10.5V324.2z"/>
		<path class="st0" d="M655.9,346.2h-15.8v15.1h-10.5V310c8.8,0,17.5-0.1,26.3-0.1C683.2,310,683.3,346.2,655.9,346.2z M640.2,337.4
			h15.8c13.5,0,13.4-18.2,0-18.2h-15.8V337.4z"/>
		<path class="st0" d="M729.1,351.6h-29.2l-4.8,9.7h-11.4l25-51.2h11.5l25,51.2h-11.5L729.1,351.6z M714.5,320.8l-10.4,21.8h20.7
			L714.5,320.8z"/>
		<path class="st0" d="M792.6,310h10.5v51.3h-6.5v0.1l-29.3-34.6v34.6h-10.5V310h8.5l27.3,31.8V310z"/>
		<path class="st0" d="M842.2,331.2L857,310h12.7v0.4l-22.2,29.7v21.2H837v-21.2l-21.4-29.7V310H828L842.2,331.2z"/>
	</g>
	<g>
		<path class="st1" d="M167.4,255l-59.7-138l-42.2,97.8h42.2V255H0L13.1,227L87.6,64.8h40L210.7,255H167.4z"/>
		<path class="st1" d="M244.8,255V65h39.8l58.4,124.7L406.6,65h36.5v190h-40.5V154.6L357.3,255h-28.7l-43.3-98.1V255H244.8z"/>
		<path class="st1" d="M567.1,255v-83.5l-82-106.8h60.4l42.9,55.8l42.7-55.8h60.6l-82,106.8V255H567.1z"/>
		<path class="st1" d="M819.4,103.5l-97,0.2V65h146.8v38.2l-94.4,110.9h94.4V255H722.5v-40.8L819.4,103.5z"/>
	</g>
</g>
<g>
	<path class="st2" d="M1208.7,165.1c-18.4,1.3-20.3,4.1-20.3,28.6v162c69.8-13.5,122.7-75.1,122.7-148.8
		c0-83.6-68-151.6-151.6-151.6c-83.6,0-151.6,68-151.6,151.6c0,72.3,50.8,132.9,118.6,148v-229c44.5,13.6,63.9,20.5,110.7,38.5
		l-3.1-0.5L1208.7,165.1z M1204.3,273.2c-4.6,0-8.3-3.7-8.3-8.3c0-4.6,3.7-8.3,8.3-8.3s8.3,3.7,8.3,8.3
		C1212.5,269.5,1208.8,273.2,1204.3,273.2z"/>
	<path class="st2" d="M1159.5,0.3c-114,0-206.5,92.5-206.5,206.5c0,90.8,58.7,167.9,140.1,195.5c27.3-3.1,32.4-10.8,33.2-33.2
		c-75.5-15.4-132.5-82.3-132.5-162.3c0-91.3,74.3-165.7,165.7-165.7s165.7,74.3,165.7,165.7c0,81.4-59.1,149.3-136.6,163.1
		c1,23.4,7.2,30,36.5,32.8c81.9-27.4,141-104.7,141-195.8C1366,92.8,1273.5,0.3,1159.5,0.3z"/>
</g>
</svg>
