<svg id="Layer_1" data-name="Layer 1" xmlns="http://www.w3.org/2000/svg" viewBox="0 0 144.04 201.08"><defs><style>.cls-1{fill:#b3b5b8;}.cls-2{fill:#ed1c24;}.cls-3{fill:#ec1f27;}</style></defs><title>logo amyz</title><path class="cls-1" d="M12.23,195.16H9.59v-1.31h6.84v1.31H13.79v6.33H12.23Z" transform="translate(-0.33 -0.58)"/><path class="cls-1" d="M25.64,201.49H23.77l-2.42-2.56H19.84v2.56H18.28v-7.65h3.95c2,0,3,1.21,3,2.53a2.31,2.31,0,0,1-2.1,2.4l2.52,2.61Zm-5.8-6.3v2.44h2.39a1.24,1.24,0,1,0,0-2.44Z" transform="translate(-0.33 -0.58)"/><path class="cls-1" d="M33.07,200.05H28.72L28,201.49h-1.7L30,193.85h1.71l3.73,7.64H33.77Zm-2.18-4.6-1.54,3.25h3.09Z" transform="translate(-0.33 -0.58)"/><path class="cls-1" d="M44.64,197.6c0,1.93-1.25,3.89-4.16,3.89H37.22v-7.64h3.26C43.33,193.85,44.6,195.71,44.64,197.6Zm-5.87,2.5h1.71a2.45,2.45,0,1,0,0-4.89H38.77Z" transform="translate(-0.33 -0.58)"/><path class="cls-1" d="M46.7,201.49v-7.64h1.56v7.64Z" transform="translate(-0.33 -0.58)"/><path class="cls-1" d="M56.08,193.84h1.57v7.65h-1l-4.37-5.16v5.15H50.74v-7.64H52l4.07,4.73Z" transform="translate(-0.33 -0.58)"/><path class="cls-1" d="M66.14,195.71A3.31,3.31,0,0,0,64,195a2.71,2.71,0,0,0-2.86,2.81A2.53,2.53,0,0,0,64,200.32a3,3,0,0,0,1.88-.61v-1.36H63.78v-1.28h3.56v3.22A4.3,4.3,0,0,1,64,201.66c-3.12,0-4.39-1.89-4.39-3.9A4,4,0,0,1,64,193.63a4.58,4.58,0,0,1,3.09,1.17Z" transform="translate(-0.33 -0.58)"/><path class="cls-1" d="M80.12,200.53A4.59,4.59,0,0,1,77,201.66c-3.09,0-4.4-1.95-4.41-3.94s1.4-4,4.41-4a4.52,4.52,0,0,1,3,1.16l-1,.93a3,3,0,0,0-2-.72,2.6,2.6,0,0,0-2.86,2.65A2.55,2.55,0,0,0,77,200.31a3.24,3.24,0,0,0,2.09-.78Z" transform="translate(-0.33 -0.58)"/><path class="cls-1" d="M90.06,197.71a3.92,3.92,0,0,1-4.26,3.95c-2.92,0-4.28-1.93-4.28-3.94a4.28,4.28,0,0,1,8.54,0Zm-7,0a2.72,2.72,0,0,0,5.44,0,2.72,2.72,0,1,0-5.44,0Z" transform="translate(-0.33 -0.58)"/><path class="cls-1" d="M99.34,196l-2.71,3.32h-.31l-2.64-3.33v5.56H92.11v-7.64h1.8l2.6,3.28,2.6-3.28h1.8v7.64H99.34Z" transform="translate(-0.33 -0.58)"/><path class="cls-1" d="M107.18,199.24h-2.35v2.25h-1.56v-7.64h3.91C111.24,193.84,111.26,199.24,107.18,199.24Zm-2.35-1.32h2.35a1.36,1.36,0,1,0,0-2.71h-2.35Z" transform="translate(-0.33 -0.58)"/><path class="cls-1" d="M118.08,200.05h-4.35l-.71,1.44h-1.7l3.73-7.64h1.71l3.73,7.64h-1.71Zm-2.17-4.6-1.55,3.25h3.09Z" transform="translate(-0.33 -0.58)"/><path class="cls-1" d="M127.55,193.84h1.57v7.65h-1l-4.37-5.16v5.15h-1.56v-7.64h1.27l4.07,4.73Z" transform="translate(-0.33 -0.58)"/><path class="cls-1" d="M134.94,197l2.21-3.15H139v.06l-3.31,4.42v3.16h-1.57v-3.16L131,193.91v-.06h1.86Z" transform="translate(-0.33 -0.58)"/><path class="cls-2" d="M34.38,185.65l-8.9-20.56-6.29,14.58h6.29v6H9.42l2-4.18,11.1-24.17h6l12.39,28.35Z" transform="translate(-0.33 -0.58)"/><path class="cls-2" d="M45.91,185.65V157.33h5.93l8.71,18.59L70,157.33h5.44v28.32h-6v-15l-6.74,15H58.4L52,171v14.62Z" transform="translate(-0.33 -0.58)"/><path class="cls-2" d="M93.94,185.65V173.21L81.72,157.3h9l6.39,8.32,6.37-8.32h9l-12.22,15.91v12.44Z" transform="translate(-0.33 -0.58)"/><path class="cls-2" d="M131.55,163.07l-14.45,0v-5.77H139V163l-14.06,16.53H139v6.09H117.1v-6.09Z" transform="translate(-0.33 -0.58)"/><path class="cls-3" d="M89.5,58.07c-6.41.44-7.08,1.44-7.08,10v56.48a52.88,52.88,0,1,0-21.58-.3V44.34c15.54,4.75,22.3,7.17,38.61,13.44l-1.09-.16ZM88,95.76a2.89,2.89,0,1,1,2.89-2.89A2.89,2.89,0,0,1,88,95.76Z" transform="translate(-0.33 -0.58)"/><path class="cls-3" d="M72.35.58A72,72,0,0,0,49.2,140.8c9.53-1.08,11.32-3.78,11.6-11.58a57.83,57.83,0,1,1,21.68.25c.36,8.17,2.52,10.45,12.72,11.43A72,72,0,0,0,72.35.58Z" transform="translate(-0.33 -0.58)"/></svg>